<?xml version="1.0" encoding="UTF-8" standalone="no"?>
<!DOCTYPE svg PUBLIC "-//W3C//DTD SVG 1.1//EN"
 "http://www.w3.org/Graphics/SVG/1.1/DTD/svg11.dtd">
<!-- Generated by graphviz version 2.43.0 (0)
 -->
<!-- Title: G Pages: 1 -->
<svg width="1305pt" height="994pt"
 viewBox="0.00 0.00 1305.35 993.70" xmlns="http://www.w3.org/2000/svg" xmlns:xlink="http://www.w3.org/1999/xlink">
<g id="graph0" class="graph" transform="scale(1 1) rotate(0) translate(4 989.7)">
<title>G</title>
<polygon fill="white" stroke="transparent" points="-4,4 -4,-989.7 1301.35,-989.7 1301.35,4 -4,4"/>
<!-- 0x00124b00039d69ed -->
<g id="node1" class="node">
<title>0x00124b00039d69ed</title>
<polygon fill="#e04e5d" stroke="black" stroke-width="2" points="515.85,-480.46 515.85,-549.46 760.85,-549.46 760.85,-480.46 515.85,-480.46"/>
<text text-anchor="middle" x="638.35" y="-534.26" font-family="Times,serif" font-size="14.00" fill="#ffffff">Coordinator</text>
<polyline fill="none" stroke="black" stroke-width="2" points="515.85,-526.46 760.85,-526.46 "/>
<text text-anchor="middle" x="638.35" y="-511.26" font-family="Times,serif" font-size="14.00" fill="#ffffff">0x00124b00039d69ed (0x0000)</text>
<polyline fill="none" stroke="black" stroke-width="2" points="515.85,-503.46 760.85,-503.46 "/>
<text text-anchor="middle" x="638.35" y="-488.26" font-family="Times,serif" font-size="14.00" fill="#ffffff">0 seconds ago</text>
</g>
<!-- 0x50325ffffe6ca5da -->
<g id="node2" class="node">
<title>0x50325ffffe6ca5da</title>
<path fill="#fff8ce" stroke="black" stroke-dasharray="5,2" d="M902.85,-266.96C902.85,-266.96 1177.85,-266.96 1177.85,-266.96 1183.85,-266.96 1189.85,-272.96 1189.85,-278.96 1189.85,-278.96 1189.85,-346.96 1189.85,-346.96 1189.85,-352.96 1183.85,-358.96 1177.85,-358.96 1177.85,-358.96 902.85,-358.96 902.85,-358.96 896.85,-358.96 890.85,-352.96 890.85,-346.96 890.85,-346.96 890.85,-278.96 890.85,-278.96 890.85,-272.96 896.85,-266.96 902.85,-266.96"/>
<text text-anchor="middle" x="1040.35" y="-343.76" font-family="Times,serif" font-size="14.00" fill="#000000">0x50325ffffe6ca5da</text>
<polyline fill="none" stroke="black" stroke-dasharray="5,2" points="890.85,-335.96 1189.85,-335.96 "/>
<text text-anchor="middle" x="1040.35" y="-320.76" font-family="Times,serif" font-size="14.00" fill="#000000">0x50325ffffe6ca5da (0xb8f1)</text>
<polyline fill="none" stroke="black" stroke-dasharray="5,2" points="890.85,-312.96 1189.85,-312.96 "/>
<text text-anchor="middle" x="1040.35" y="-297.76" font-family="Times,serif" font-size="14.00" fill="#000000">IKEA TRADFRI ON/OFF switch (E1743)</text>
<polyline fill="none" stroke="black" stroke-dasharray="5,2" points="890.85,-289.96 1189.85,-289.96 "/>
<text text-anchor="middle" x="1040.35" y="-274.76" font-family="Times,serif" font-size="14.00" fill="#000000">11 minutes, 36 seconds ago</text>
</g>
<!-- 0x00158d0004035e3e -->
<g id="node3" class="node">
<title>0x00158d0004035e3e</title>
<path fill="#fff8ce" stroke="black" stroke-dasharray="5,2" d="M962.35,-468.96C962.35,-468.96 1285.35,-468.96 1285.35,-468.96 1291.35,-468.96 1297.35,-474.96 1297.35,-480.96 1297.35,-480.96 1297.35,-548.96 1297.35,-548.96 1297.35,-554.96 1291.35,-560.96 1285.35,-560.96 1285.35,-560.96 962.35,-560.96 962.35,-560.96 956.35,-560.96 950.35,-554.96 950.35,-548.96 950.35,-548.96 950.35,-480.96 950.35,-480.96 950.35,-474.96 956.35,-468.96 962.35,-468.96"/>
<text text-anchor="middle" x="1123.85" y="-545.76" font-family="Times,serif" font-size="14.00" fill="#000000">0x00158d0004035e3e</text>
<polyline fill="none" stroke="black" stroke-dasharray="5,2" points="950.35,-537.96 1297.35,-537.96 "/>
<text text-anchor="middle" x="1123.85" y="-522.76" font-family="Times,serif" font-size="14.00" fill="#000000">0x00158d0004035e3e (0xdb76)</text>
<polyline fill="none" stroke="black" stroke-dasharray="5,2" points="950.35,-514.96 1297.35,-514.96 "/>
<text text-anchor="middle" x="1123.85" y="-499.76" font-family="Times,serif" font-size="14.00" fill="#000000">Xiaomi Aqara water leak sensor (SJCGQ11LM)</text>
<polyline fill="none" stroke="black" stroke-dasharray="5,2" points="950.35,-491.96 1297.35,-491.96 "/>
<text text-anchor="middle" x="1123.85" y="-476.76" font-family="Times,serif" font-size="14.00" fill="#000000">15 minutes, 59 seconds ago</text>
</g>
<!-- 0x00158d0004035e3e&#45;&gt;0x00124b00039d69ed -->
<g id="edge1" class="edge">
<title>0x00158d0004035e3e&#45;&gt;0x00124b00039d69ed</title>
<path fill="none" stroke="#994444" d="M950.29,-514.96C891.35,-514.96 826.47,-514.96 771.22,-514.96"/>
<polygon fill="#994444" stroke="#994444" points="771.02,-511.46 761.02,-514.96 771.02,-518.46 771.02,-511.46"/>
<text text-anchor="middle" x="855.75" y="-518.76" font-family="Times,serif" font-size="14.00">1</text>
</g>
<!-- 0x00158d00040356af -->
<g id="node4" class="node">
<title>0x00158d00040356af</title>
<path fill="#fff8ce" stroke="black" stroke-dasharray="5,2" d="M712.92,-893.2C712.92,-893.2 1035.92,-893.2 1035.92,-893.2 1041.92,-893.2 1047.92,-899.2 1047.92,-905.2 1047.92,-905.2 1047.92,-973.2 1047.92,-973.2 1047.92,-979.2 1041.92,-985.2 1035.92,-985.2 1035.92,-985.2 712.92,-985.2 712.92,-985.2 706.92,-985.2 700.92,-979.2 700.92,-973.2 700.92,-973.2 700.92,-905.2 700.92,-905.2 700.92,-899.2 706.92,-893.2 712.92,-893.2"/>
<text text-anchor="middle" x="874.42" y="-970" font-family="Times,serif" font-size="14.00" fill="#000000">0x00158d00040356af</text>
<polyline fill="none" stroke="black" stroke-dasharray="5,2" points="700.92,-962.2 1047.92,-962.2 "/>
<text text-anchor="middle" x="874.42" y="-947" font-family="Times,serif" font-size="14.00" fill="#000000">0x00158d00040356af (0x7302)</text>
<polyline fill="none" stroke="black" stroke-dasharray="5,2" points="700.92,-939.2 1047.92,-939.2 "/>
<text text-anchor="middle" x="874.42" y="-924" font-family="Times,serif" font-size="14.00" fill="#000000">Xiaomi Aqara water leak sensor (SJCGQ11LM)</text>
<polyline fill="none" stroke="black" stroke-dasharray="5,2" points="700.92,-916.2 1047.92,-916.2 "/>
<text text-anchor="middle" x="874.42" y="-901" font-family="Times,serif" font-size="14.00" fill="#000000">38 minutes, 51 seconds ago</text>
</g>
<!-- 0x00158d00040356af&#45;&gt;0x00124b00039d69ed -->
<g id="edge2" class="edge">
<title>0x00158d00040356af&#45;&gt;0x00124b00039d69ed</title>
<path fill="none" stroke="#994444" d="M848.7,-892.99C802.79,-810.48 707.34,-638.94 662.55,-558.44"/>
<polygon fill="#994444" stroke="#994444" points="665.52,-556.59 657.6,-549.55 659.4,-559.99 665.52,-556.59"/>
<text text-anchor="middle" x="750.63" y="-729.52" font-family="Times,serif" font-size="14.00">1</text>
</g>
<!-- 0x00158d00042446ec -->
<g id="node5" class="node">
<title>0x00158d00042446ec</title>
<path fill="#fff8ce" stroke="black" stroke-dasharray="5,2" d="M12,-808.16C12,-808.16 570,-808.16 570,-808.16 576,-808.16 582,-814.16 582,-820.16 582,-820.16 582,-888.16 582,-888.16 582,-894.16 576,-900.16 570,-900.16 570,-900.16 12,-900.16 12,-900.16 6,-900.16 0,-894.16 0,-888.16 0,-888.16 0,-820.16 0,-820.16 0,-814.16 6,-808.16 12,-808.16"/>
<text text-anchor="middle" x="291" y="-884.96" font-family="Times,serif" font-size="14.00" fill="#000000">0x00158d00042446ec</text>
<polyline fill="none" stroke="black" stroke-dasharray="5,2" points="0,-877.16 582,-877.16 "/>
<text text-anchor="middle" x="291" y="-861.96" font-family="Times,serif" font-size="14.00" fill="#000000">0x00158d00042446ec (0x7ed0)</text>
<polyline fill="none" stroke="black" stroke-dasharray="5,2" points="0,-854.16 582,-854.16 "/>
<text text-anchor="middle" x="291" y="-838.96" font-family="Times,serif" font-size="14.00" fill="#000000">Xiaomi Aqara double key wireless wall switch (2018 model) (WXKG02LM_rev2)</text>
<polyline fill="none" stroke="black" stroke-dasharray="5,2" points="0,-831.16 582,-831.16 "/>
<text text-anchor="middle" x="291" y="-815.96" font-family="Times,serif" font-size="14.00" fill="#000000">22 minutes, 18 seconds ago</text>
</g>
<!-- 0x00158d00042446ec&#45;&gt;0x00124b00039d69ed -->
<g id="edge3" class="edge">
<title>0x00158d00042446ec&#45;&gt;0x00124b00039d69ed</title>
<path fill="none" stroke="#994444" d="M338.21,-808.06C406.08,-741.78 530.23,-620.54 595.56,-556.74"/>
<polygon fill="#994444" stroke="#994444" points="598.13,-559.12 602.84,-549.63 593.24,-554.11 598.13,-559.12"/>
<text text-anchor="middle" x="457.38" y="-686.2" font-family="Times,serif" font-size="14.00">22</text>
</g>
<!-- 0x00158d000405811b -->
<g id="node6" class="node">
<title>0x00158d000405811b</title>
<path fill="#fff8ce" stroke="black" stroke-dasharray="5,2" d="M58.33,-222.89C58.33,-222.89 381.33,-222.89 381.33,-222.89 387.33,-222.89 393.33,-228.89 393.33,-234.89 393.33,-234.89 393.33,-302.89 393.33,-302.89 393.33,-308.89 387.33,-314.89 381.33,-314.89 381.33,-314.89 58.33,-314.89 58.33,-314.89 52.33,-314.89 46.33,-308.89 46.33,-302.89 46.33,-302.89 46.33,-234.89 46.33,-234.89 46.33,-228.89 52.33,-222.89 58.33,-222.89"/>
<text text-anchor="middle" x="219.83" y="-299.69" font-family="Times,serif" font-size="14.00" fill="#000000">0x00158d000405811b</text>
<polyline fill="none" stroke="black" stroke-dasharray="5,2" points="46.33,-291.89 393.33,-291.89 "/>
<text text-anchor="middle" x="219.83" y="-276.69" font-family="Times,serif" font-size="14.00" fill="#000000">0x00158d000405811b (0x0069)</text>
<polyline fill="none" stroke="black" stroke-dasharray="5,2" points="46.33,-268.89 393.33,-268.89 "/>
<text text-anchor="middle" x="219.83" y="-253.69" font-family="Times,serif" font-size="14.00" fill="#000000">Xiaomi Aqara water leak sensor (SJCGQ11LM)</text>
<polyline fill="none" stroke="black" stroke-dasharray="5,2" points="46.33,-245.89 393.33,-245.89 "/>
<text text-anchor="middle" x="219.83" y="-230.69" font-family="Times,serif" font-size="14.00" fill="#000000">39 minutes, 46 seconds ago</text>
</g>
<!-- 0x00158d000405811b&#45;&gt;0x00124b00039d69ed -->
<g id="edge4" class="edge">
<title>0x00158d000405811b&#45;&gt;0x00124b00039d69ed</title>
<path fill="none" stroke="#994444" d="M298.55,-315.17C377.05,-361.33 496.36,-431.47 570.71,-475.19"/>
<polygon fill="#994444" stroke="#994444" points="569.16,-478.34 579.55,-480.39 572.71,-472.3 569.16,-478.34"/>
<text text-anchor="middle" x="429.63" y="-398.98" font-family="Times,serif" font-size="14.00">1</text>
</g>
<!-- 0x00158d0004244bda -->
<g id="node7" class="node">
<title>0x00158d0004244bda</title>
<path fill="#fff8ce" stroke="black" stroke-dasharray="5,2" d="M486.86,-0.5C486.86,-0.5 1044.86,-0.5 1044.86,-0.5 1050.86,-0.5 1056.86,-6.5 1056.86,-12.5 1056.86,-12.5 1056.86,-80.5 1056.86,-80.5 1056.86,-86.5 1050.86,-92.5 1044.86,-92.5 1044.86,-92.5 486.86,-92.5 486.86,-92.5 480.86,-92.5 474.86,-86.5 474.86,-80.5 474.86,-80.5 474.86,-12.5 474.86,-12.5 474.86,-6.5 480.86,-0.5 486.86,-0.5"/>
<text text-anchor="middle" x="765.86" y="-77.3" font-family="Times,serif" font-size="14.00" fill="#000000">0x00158d0004244bda</text>
<polyline fill="none" stroke="black" stroke-dasharray="5,2" points="474.86,-69.5 1056.86,-69.5 "/>
<text text-anchor="middle" x="765.86" y="-54.3" font-family="Times,serif" font-size="14.00" fill="#000000">0x00158d0004244bda (0xaecd)</text>
<polyline fill="none" stroke="black" stroke-dasharray="5,2" points="474.86,-46.5 1056.86,-46.5 "/>
<text text-anchor="middle" x="765.86" y="-31.3" font-family="Times,serif" font-size="14.00" fill="#000000">Xiaomi Aqara double key wireless wall switch (2018 model) (WXKG02LM_rev2)</text>
<polyline fill="none" stroke="black" stroke-dasharray="5,2" points="474.86,-23.5 1056.86,-23.5 "/>
<text text-anchor="middle" x="765.86" y="-8.3" font-family="Times,serif" font-size="14.00" fill="#000000">48 minutes, 58 seconds ago</text>
</g>
<!-- 0x00158d0004244bda&#45;&gt;0x00124b00039d69ed -->
<g id="edge5" class="edge">
<title>0x00158d0004244bda&#45;&gt;0x00124b00039d69ed</title>
<path fill="none" stroke="#994444" d="M753.29,-92.7C728.72,-182.94 674.66,-381.55 650.47,-470.43"/>
<polygon fill="#994444" stroke="#994444" points="647.06,-469.64 647.81,-480.2 653.81,-471.47 647.06,-469.64"/>
<text text-anchor="middle" x="696.88" y="-285.36" font-family="Times,serif" font-size="14.00">1</text>
</g>
</g>
</svg>
