<?xml version="1.0" encoding="UTF-8" standalone="no"?>
<!DOCTYPE svg PUBLIC "-//W3C//DTD SVG 1.1//EN"
 "http://www.w3.org/Graphics/SVG/1.1/DTD/svg11.dtd">
<!-- Generated by graphviz version 2.43.0 (0)
 -->
<!-- Title: G Pages: 1 -->
<svg width="1549pt" height="1198pt"
 viewBox="0.00 0.00 1548.94 1197.85" xmlns="http://www.w3.org/2000/svg" xmlns:xlink="http://www.w3.org/1999/xlink">
<g id="graph0" class="graph" transform="scale(1 1) rotate(0) translate(4 1193.85)">
<title>G</title>
<polygon fill="white" stroke="transparent" points="-4,4 -4,-1193.85 1544.94,-1193.85 1544.94,4 -4,4"/>
<!-- 0x00124b00039d69ed -->
<g id="node1" class="node">
<title>0x00124b00039d69ed</title>
<polygon fill="#e04e5d" stroke="black" stroke-width="2" points="702.03,-556.9 702.03,-625.9 947.03,-625.9 947.03,-556.9 702.03,-556.9"/>
<text text-anchor="middle" x="824.53" y="-610.7" font-family="Times,serif" font-size="14.00" fill="#ffffff">Coordinator</text>
<polyline fill="none" stroke="black" stroke-width="2" points="702.03,-602.9 947.03,-602.9 "/>
<text text-anchor="middle" x="824.53" y="-587.7" font-family="Times,serif" font-size="14.00" fill="#ffffff">0x00124b00039d69ed (0x0000)</text>
<polyline fill="none" stroke="black" stroke-width="2" points="702.03,-579.9 947.03,-579.9 "/>
<text text-anchor="middle" x="824.53" y="-564.7" font-family="Times,serif" font-size="14.00" fill="#ffffff">0 seconds ago</text>
</g>
<!-- 0x50325ffffe6ca5da -->
<g id="node2" class="node">
<title>0x50325ffffe6ca5da</title>
<path fill="#fff8ce" stroke="black" stroke-dasharray="5,2" d="M1253.94,-545.4C1253.94,-545.4 1528.94,-545.4 1528.94,-545.4 1534.94,-545.4 1540.94,-551.4 1540.94,-557.4 1540.94,-557.4 1540.94,-625.4 1540.94,-625.4 1540.94,-631.4 1534.94,-637.4 1528.94,-637.4 1528.94,-637.4 1253.94,-637.4 1253.94,-637.4 1247.94,-637.4 1241.94,-631.4 1241.94,-625.4 1241.94,-625.4 1241.94,-557.4 1241.94,-557.4 1241.94,-551.4 1247.94,-545.4 1253.94,-545.4"/>
<text text-anchor="middle" x="1391.44" y="-622.2" font-family="Times,serif" font-size="14.00" fill="#000000">0x50325ffffe6ca5da</text>
<polyline fill="none" stroke="black" stroke-dasharray="5,2" points="1241.94,-614.4 1540.94,-614.4 "/>
<text text-anchor="middle" x="1391.44" y="-599.2" font-family="Times,serif" font-size="14.00" fill="#000000">0x50325ffffe6ca5da (0x1715)</text>
<polyline fill="none" stroke="black" stroke-dasharray="5,2" points="1241.94,-591.4 1540.94,-591.4 "/>
<text text-anchor="middle" x="1391.44" y="-576.2" font-family="Times,serif" font-size="14.00" fill="#000000">IKEA TRADFRI ON/OFF switch (E1743)</text>
<polyline fill="none" stroke="black" stroke-dasharray="5,2" points="1241.94,-568.4 1540.94,-568.4 "/>
<text text-anchor="middle" x="1391.44" y="-553.2" font-family="Times,serif" font-size="14.00" fill="#000000">1 hour, 58 minutes ago</text>
</g>
<!-- 0x50325ffffe6ca5da&#45;&gt;0x00124b00039d69ed -->
<g id="edge1" class="edge">
<title>0x50325ffffe6ca5da&#45;&gt;0x00124b00039d69ed</title>
<path fill="none" stroke="#994444" d="M1241.75,-591.4C1153.4,-591.4 1042.55,-591.4 957.32,-591.4"/>
<polygon fill="#994444" stroke="#994444" points="957.32,-587.9 947.32,-591.4 957.32,-594.9 957.32,-587.9"/>
<text text-anchor="middle" x="1090.03" y="-595.2" font-family="Times,serif" font-size="14.00">35</text>
</g>
<!-- 0x00158d00067cb0c9 -->
<g id="node3" class="node">
<title>0x00158d00067cb0c9</title>
<path fill="#fff8ce" stroke="black" stroke-dasharray="5,2" d="M921.03,-982.09C921.03,-982.09 1451.03,-982.09 1451.03,-982.09 1457.03,-982.09 1463.03,-988.09 1463.03,-994.09 1463.03,-994.09 1463.03,-1062.09 1463.03,-1062.09 1463.03,-1068.09 1457.03,-1074.09 1451.03,-1074.09 1451.03,-1074.09 921.03,-1074.09 921.03,-1074.09 915.03,-1074.09 909.03,-1068.09 909.03,-1062.09 909.03,-1062.09 909.03,-994.09 909.03,-994.09 909.03,-988.09 915.03,-982.09 921.03,-982.09"/>
<text text-anchor="middle" x="1186.03" y="-1058.89" font-family="Times,serif" font-size="14.00" fill="#000000">0x00158d00067cb0c9</text>
<polyline fill="none" stroke="black" stroke-dasharray="5,2" points="909.03,-1051.09 1463.03,-1051.09 "/>
<text text-anchor="middle" x="1186.03" y="-1035.89" font-family="Times,serif" font-size="14.00" fill="#000000">0x00158d00067cb0c9 (0xedd1)</text>
<polyline fill="none" stroke="black" stroke-dasharray="5,2" points="909.03,-1028.09 1463.03,-1028.09 "/>
<text text-anchor="middle" x="1186.03" y="-1012.89" font-family="Times,serif" font-size="14.00" fill="#000000">Xiaomi Aqara temperature, humidity and pressure sensor (WSDCGQ11LM)</text>
<polyline fill="none" stroke="black" stroke-dasharray="5,2" points="909.03,-1005.09 1463.03,-1005.09 "/>
<text text-anchor="middle" x="1186.03" y="-989.89" font-family="Times,serif" font-size="14.00" fill="#000000">5 minutes, 11 seconds ago</text>
</g>
<!-- 0x00158d00067cb0c9&#45;&gt;0x00124b00039d69ed -->
<g id="edge2" class="edge">
<title>0x00158d00067cb0c9&#45;&gt;0x00124b00039d69ed</title>
<path fill="none" stroke="#994444" d="M1147.69,-981.77C1077.17,-896.59 927.9,-716.26 859.77,-633.96"/>
<polygon fill="#994444" stroke="#994444" points="862.31,-631.54 853.24,-626.07 856.92,-636.01 862.31,-631.54"/>
<text text-anchor="middle" x="994.23" y="-811.67" font-family="Times,serif" font-size="14.00">38</text>
</g>
<!-- 0x00158d0004035e3e -->
<g id="node4" class="node">
<title>0x00158d0004035e3e</title>
<path fill="#fff8ce" stroke="black" stroke-dasharray="5,2" d="M533.68,-1097.35C533.68,-1097.35 856.68,-1097.35 856.68,-1097.35 862.68,-1097.35 868.68,-1103.35 868.68,-1109.35 868.68,-1109.35 868.68,-1177.35 868.68,-1177.35 868.68,-1183.35 862.68,-1189.35 856.68,-1189.35 856.68,-1189.35 533.68,-1189.35 533.68,-1189.35 527.68,-1189.35 521.68,-1183.35 521.68,-1177.35 521.68,-1177.35 521.68,-1109.35 521.68,-1109.35 521.68,-1103.35 527.68,-1097.35 533.68,-1097.35"/>
<text text-anchor="middle" x="695.18" y="-1174.15" font-family="Times,serif" font-size="14.00" fill="#000000">0x00158d0004035e3e</text>
<polyline fill="none" stroke="black" stroke-dasharray="5,2" points="521.68,-1166.35 868.68,-1166.35 "/>
<text text-anchor="middle" x="695.18" y="-1151.15" font-family="Times,serif" font-size="14.00" fill="#000000">0x00158d0004035e3e (0xdb76)</text>
<polyline fill="none" stroke="black" stroke-dasharray="5,2" points="521.68,-1143.35 868.68,-1143.35 "/>
<text text-anchor="middle" x="695.18" y="-1128.15" font-family="Times,serif" font-size="14.00" fill="#000000">Xiaomi Aqara water leak sensor (SJCGQ11LM)</text>
<polyline fill="none" stroke="black" stroke-dasharray="5,2" points="521.68,-1120.35 868.68,-1120.35 "/>
<text text-anchor="middle" x="695.18" y="-1105.15" font-family="Times,serif" font-size="14.00" fill="#000000">13 minutes, 13 seconds ago</text>
</g>
<!-- 0x00158d0004035e3e&#45;&gt;0x00124b00039d69ed -->
<g id="edge3" class="edge">
<title>0x00158d0004035e3e&#45;&gt;0x00124b00039d69ed</title>
<path fill="none" stroke="#994444" d="M705.99,-1097.24C730.49,-992.68 790.02,-738.69 814.13,-635.79"/>
<polygon fill="#994444" stroke="#994444" points="817.55,-636.56 816.42,-626.02 810.73,-634.96 817.55,-636.56"/>
<text text-anchor="middle" x="755.06" y="-870.31" font-family="Times,serif" font-size="14.00">1</text>
</g>
<!-- 0x00158d00040356af -->
<g id="node5" class="node">
<title>0x00158d00040356af</title>
<path fill="#fff8ce" stroke="black" stroke-dasharray="5,2" d="M195.63,-866.2C195.63,-866.2 518.63,-866.2 518.63,-866.2 524.63,-866.2 530.63,-872.2 530.63,-878.2 530.63,-878.2 530.63,-946.2 530.63,-946.2 530.63,-952.2 524.63,-958.2 518.63,-958.2 518.63,-958.2 195.63,-958.2 195.63,-958.2 189.63,-958.2 183.63,-952.2 183.63,-946.2 183.63,-946.2 183.63,-878.2 183.63,-878.2 183.63,-872.2 189.63,-866.2 195.63,-866.2"/>
<text text-anchor="middle" x="357.13" y="-943" font-family="Times,serif" font-size="14.00" fill="#000000">0x00158d00040356af</text>
<polyline fill="none" stroke="black" stroke-dasharray="5,2" points="183.63,-935.2 530.63,-935.2 "/>
<text text-anchor="middle" x="357.13" y="-920" font-family="Times,serif" font-size="14.00" fill="#000000">0x00158d00040356af (0x7302)</text>
<polyline fill="none" stroke="black" stroke-dasharray="5,2" points="183.63,-912.2 530.63,-912.2 "/>
<text text-anchor="middle" x="357.13" y="-897" font-family="Times,serif" font-size="14.00" fill="#000000">Xiaomi Aqara water leak sensor (SJCGQ11LM)</text>
<polyline fill="none" stroke="black" stroke-dasharray="5,2" points="183.63,-889.2 530.63,-889.2 "/>
<text text-anchor="middle" x="357.13" y="-874" font-family="Times,serif" font-size="14.00" fill="#000000">18 minutes, 10 seconds ago</text>
</g>
<!-- 0x00158d00040356af&#45;&gt;0x00124b00039d69ed -->
<g id="edge4" class="edge">
<title>0x00158d00040356af&#45;&gt;0x00124b00039d69ed</title>
<path fill="none" stroke="#994444" d="M424.59,-865.9C516.22,-803.01 678.53,-691.61 765.54,-631.89"/>
<polygon fill="#994444" stroke="#994444" points="767.71,-634.64 773.98,-626.1 763.75,-628.87 767.71,-634.64"/>
<text text-anchor="middle" x="590.07" y="-752.69" font-family="Times,serif" font-size="14.00">1</text>
</g>
<!-- 0x00158d00042446ec -->
<g id="node6" class="node">
<title>0x00158d00042446ec</title>
<path fill="#fff8ce" stroke="black" stroke-dasharray="5,2" d="M12,-353.75C12,-353.75 570,-353.75 570,-353.75 576,-353.75 582,-359.75 582,-365.75 582,-365.75 582,-433.75 582,-433.75 582,-439.75 576,-445.75 570,-445.75 570,-445.75 12,-445.75 12,-445.75 6,-445.75 0,-439.75 0,-433.75 0,-433.75 0,-365.75 0,-365.75 0,-359.75 6,-353.75 12,-353.75"/>
<text text-anchor="middle" x="291" y="-430.55" font-family="Times,serif" font-size="14.00" fill="#000000">0x00158d00042446ec</text>
<polyline fill="none" stroke="black" stroke-dasharray="5,2" points="0,-422.75 582,-422.75 "/>
<text text-anchor="middle" x="291" y="-407.55" font-family="Times,serif" font-size="14.00" fill="#000000">0x00158d00042446ec (0x7ed0)</text>
<polyline fill="none" stroke="black" stroke-dasharray="5,2" points="0,-399.75 582,-399.75 "/>
<text text-anchor="middle" x="291" y="-384.55" font-family="Times,serif" font-size="14.00" fill="#000000">Xiaomi Aqara double key wireless wall switch (2018 model) (WXKG02LM_rev2)</text>
<polyline fill="none" stroke="black" stroke-dasharray="5,2" points="0,-376.75 582,-376.75 "/>
<text text-anchor="middle" x="291" y="-361.55" font-family="Times,serif" font-size="14.00" fill="#000000">13 minutes, 13 seconds ago</text>
</g>
<!-- 0x00158d00042446ec&#45;&gt;0x00124b00039d69ed -->
<g id="edge5" class="edge">
<title>0x00158d00042446ec&#45;&gt;0x00124b00039d69ed</title>
<path fill="none" stroke="#994444" d="M419.13,-445.77C510.81,-478.71 632.74,-522.5 718.86,-553.44"/>
<polygon fill="#994444" stroke="#994444" points="717.8,-556.78 728.39,-556.86 720.16,-550.19 717.8,-556.78"/>
<text text-anchor="middle" x="559.5" y="-503.41" font-family="Times,serif" font-size="14.00">37</text>
</g>
<!-- 0x00158d000405811b -->
<g id="node7" class="node">
<title>0x00158d000405811b</title>
<path fill="#fff8ce" stroke="black" stroke-dasharray="5,2" d="M506.59,-0.5C506.59,-0.5 829.59,-0.5 829.59,-0.5 835.59,-0.5 841.59,-6.5 841.59,-12.5 841.59,-12.5 841.59,-80.5 841.59,-80.5 841.59,-86.5 835.59,-92.5 829.59,-92.5 829.59,-92.5 506.59,-92.5 506.59,-92.5 500.59,-92.5 494.59,-86.5 494.59,-80.5 494.59,-80.5 494.59,-12.5 494.59,-12.5 494.59,-6.5 500.59,-0.5 506.59,-0.5"/>
<text text-anchor="middle" x="668.09" y="-77.3" font-family="Times,serif" font-size="14.00" fill="#000000">0x00158d000405811b</text>
<polyline fill="none" stroke="black" stroke-dasharray="5,2" points="494.59,-69.5 841.59,-69.5 "/>
<text text-anchor="middle" x="668.09" y="-54.3" font-family="Times,serif" font-size="14.00" fill="#000000">0x00158d000405811b (0x0069)</text>
<polyline fill="none" stroke="black" stroke-dasharray="5,2" points="494.59,-46.5 841.59,-46.5 "/>
<text text-anchor="middle" x="668.09" y="-31.3" font-family="Times,serif" font-size="14.00" fill="#000000">Xiaomi Aqara water leak sensor (SJCGQ11LM)</text>
<polyline fill="none" stroke="black" stroke-dasharray="5,2" points="494.59,-23.5 841.59,-23.5 "/>
<text text-anchor="middle" x="668.09" y="-8.3" font-family="Times,serif" font-size="14.00" fill="#000000">27 minutes, 15 seconds ago</text>
</g>
<!-- 0x00158d000405811b&#45;&gt;0x00124b00039d69ed -->
<g id="edge6" class="edge">
<title>0x00158d000405811b&#45;&gt;0x00124b00039d69ed</title>
<path fill="none" stroke="#994444" d="M681.43,-92.96C711.18,-196.57 782.62,-445.42 811.8,-547.04"/>
<polygon fill="#994444" stroke="#994444" points="808.45,-548.04 814.57,-556.69 815.17,-546.11 808.45,-548.04"/>
<text text-anchor="middle" x="737.11" y="-323.8" font-family="Times,serif" font-size="14.00">36</text>
</g>
<!-- 0x00158d0004244bda -->
<g id="node8" class="node">
<title>0x00158d0004244bda</title>
<path fill="#fff8ce" stroke="black" stroke-dasharray="5,2" d="M896.14,-99.91C896.14,-99.91 1454.14,-99.91 1454.14,-99.91 1460.14,-99.91 1466.14,-105.91 1466.14,-111.91 1466.14,-111.91 1466.14,-179.91 1466.14,-179.91 1466.14,-185.91 1460.14,-191.91 1454.14,-191.91 1454.14,-191.91 896.14,-191.91 896.14,-191.91 890.14,-191.91 884.14,-185.91 884.14,-179.91 884.14,-179.91 884.14,-111.91 884.14,-111.91 884.14,-105.91 890.14,-99.91 896.14,-99.91"/>
<text text-anchor="middle" x="1175.14" y="-176.71" font-family="Times,serif" font-size="14.00" fill="#000000">0x00158d0004244bda</text>
<polyline fill="none" stroke="black" stroke-dasharray="5,2" points="884.14,-168.91 1466.14,-168.91 "/>
<text text-anchor="middle" x="1175.14" y="-153.71" font-family="Times,serif" font-size="14.00" fill="#000000">0x00158d0004244bda (0xaecd)</text>
<polyline fill="none" stroke="black" stroke-dasharray="5,2" points="884.14,-145.91 1466.14,-145.91 "/>
<text text-anchor="middle" x="1175.14" y="-130.71" font-family="Times,serif" font-size="14.00" fill="#000000">Xiaomi Aqara double key wireless wall switch (2018 model) (WXKG02LM_rev2)</text>
<polyline fill="none" stroke="black" stroke-dasharray="5,2" points="884.14,-122.91 1466.14,-122.91 "/>
<text text-anchor="middle" x="1175.14" y="-107.71" font-family="Times,serif" font-size="14.00" fill="#000000">43 minutes, 29 seconds ago</text>
</g>
<!-- 0x00158d0004244bda&#45;&gt;0x00124b00039d69ed -->
<g id="edge7" class="edge">
<title>0x00158d0004244bda&#45;&gt;0x00124b00039d69ed</title>
<path fill="none" stroke="#994444" d="M1138.61,-192.32C1070.29,-279.13 924.13,-464.84 858.12,-548.72"/>
<polygon fill="#994444" stroke="#994444" points="855.23,-546.73 851.8,-556.75 860.73,-551.06 855.23,-546.73"/>
<text text-anchor="middle" x="988.87" y="-374.32" font-family="Times,serif" font-size="14.00">21</text>
</g>
</g>
</svg>
