<?xml version="1.0" encoding="UTF-8" standalone="no"?>
<!DOCTYPE svg PUBLIC "-//W3C//DTD SVG 1.1//EN"
 "http://www.w3.org/Graphics/SVG/1.1/DTD/svg11.dtd">
<!-- Generated by graphviz version 2.43.0 (0)
 -->
<!-- Title: G Pages: 1 -->
<svg width="2209pt" height="1698pt"
 viewBox="0.00 0.00 2209.06 1698.30" xmlns="http://www.w3.org/2000/svg" xmlns:xlink="http://www.w3.org/1999/xlink">
<g id="graph0" class="graph" transform="scale(1 1) rotate(0) translate(4 1694.3)">
<title>G</title>
<polygon fill="white" stroke="transparent" points="-4,4 -4,-1694.3 2205.06,-1694.3 2205.06,4 -4,4"/>
<!-- 0x00124b00039d69ed -->
<g id="node1" class="node">
<title>0x00124b00039d69ed</title>
<polygon fill="#e04e5d" stroke="black" stroke-width="2" points="871.23,-818.15 871.23,-887.15 1116.23,-887.15 1116.23,-818.15 871.23,-818.15"/>
<text text-anchor="middle" x="993.73" y="-871.95" font-family="Times,serif" font-size="14.00" fill="#ffffff">Coordinator</text>
<polyline fill="none" stroke="black" stroke-width="2" points="871.23,-864.15 1116.23,-864.15 "/>
<text text-anchor="middle" x="993.73" y="-848.95" font-family="Times,serif" font-size="14.00" fill="#ffffff">0x00124b00039d69ed (0x0000)</text>
<polyline fill="none" stroke="black" stroke-width="2" points="871.23,-841.15 1116.23,-841.15 "/>
<text text-anchor="middle" x="993.73" y="-825.95" font-family="Times,serif" font-size="14.00" fill="#ffffff">0 seconds ago</text>
</g>
<!-- 0x000d6ffffefc0f29 -->
<g id="node2" class="node">
<title>0x000d6ffffefc0f29</title>
<path fill="#4ea3e0" stroke="black" d="M1451.06,-806.65C1451.06,-806.65 2189.06,-806.65 2189.06,-806.65 2195.06,-806.65 2201.06,-812.65 2201.06,-818.65 2201.06,-818.65 2201.06,-886.65 2201.06,-886.65 2201.06,-892.65 2195.06,-898.65 2189.06,-898.65 2189.06,-898.65 1451.06,-898.65 1451.06,-898.65 1445.06,-898.65 1439.06,-892.65 1439.06,-886.65 1439.06,-886.65 1439.06,-818.65 1439.06,-818.65 1439.06,-812.65 1445.06,-806.65 1451.06,-806.65"/>
<text text-anchor="middle" x="1820.06" y="-883.45" font-family="Times,serif" font-size="14.00" fill="#ffffff">0x000d6ffffefc0f29</text>
<polyline fill="none" stroke="black" points="1439.06,-875.65 2201.06,-875.65 "/>
<text text-anchor="middle" x="1820.06" y="-860.45" font-family="Times,serif" font-size="14.00" fill="#ffffff">0x000d6ffffefc0f29 (0xd855)</text>
<polyline fill="none" stroke="black" points="1439.06,-852.65 2201.06,-852.65 "/>
<text text-anchor="middle" x="1820.06" y="-837.45" font-family="Times,serif" font-size="14.00" fill="#ffffff">IKEA TRADFRI LED bulb E12/E14/E17 400 lumen, dimmable warm white, chandelier opal (LED1649C5)</text>
<polyline fill="none" stroke="black" points="1439.06,-829.65 2201.06,-829.65 "/>
<text text-anchor="middle" x="1820.06" y="-814.45" font-family="Times,serif" font-size="14.00" fill="#ffffff">2 hours, 44 minutes ago</text>
</g>
<!-- 0x00124b00039d69ed&#45;&gt;0x000d6ffffefc0f29 -->
<g id="edge1" class="edge">
<title>0x00124b00039d69ed&#45;&gt;0x000d6ffffefc0f29</title>
<path fill="none" stroke="#994444" stroke-width="0.5" d="M1116.55,-857.62C1200.01,-858.89 1315.44,-859.48 1428.68,-859.39"/>
<polygon fill="#994444" stroke="#994444" stroke-width="0.5" points="1428.93,-862.89 1438.93,-859.38 1428.93,-855.89 1428.93,-862.89"/>
<text text-anchor="middle" x="1263.12" y="-862.31" font-family="Times,serif" font-size="14.00">33</text>
</g>
<!-- 0x000d6ffffefc0f29&#45;&gt;0x00124b00039d69ed -->
<g id="edge11" class="edge">
<title>0x000d6ffffefc0f29&#45;&gt;0x00124b00039d69ed</title>
<path fill="none" stroke="#994444" stroke-width="0.5" d="M1438.94,-845.92C1326.9,-845.79 1211.69,-846.33 1126.55,-847.54"/>
<polygon fill="#994444" stroke="#994444" stroke-width="0.5" points="1126.26,-844.04 1116.32,-847.69 1126.37,-851.04 1126.26,-844.04"/>
<text text-anchor="middle" x="1273.25" y="-835.53" font-family="Times,serif" font-size="14.00">42</text>
</g>
<!-- 0x00158d0003a010a5 -->
<g id="node3" class="node">
<title>0x00158d0003a010a5</title>
<path fill="#4ea3e0" stroke="black" d="M1449.9,-1367.16C1449.9,-1367.16 1751.9,-1367.16 1751.9,-1367.16 1757.9,-1367.16 1763.9,-1373.16 1763.9,-1379.16 1763.9,-1379.16 1763.9,-1447.16 1763.9,-1447.16 1763.9,-1453.16 1757.9,-1459.16 1751.9,-1459.16 1751.9,-1459.16 1449.9,-1459.16 1449.9,-1459.16 1443.9,-1459.16 1437.9,-1453.16 1437.9,-1447.16 1437.9,-1447.16 1437.9,-1379.16 1437.9,-1379.16 1437.9,-1373.16 1443.9,-1367.16 1449.9,-1367.16"/>
<text text-anchor="middle" x="1600.9" y="-1443.96" font-family="Times,serif" font-size="14.00" fill="#ffffff">0x00158d0003a010a5</text>
<polyline fill="none" stroke="black" points="1437.9,-1436.16 1763.9,-1436.16 "/>
<text text-anchor="middle" x="1600.9" y="-1420.96" font-family="Times,serif" font-size="14.00" fill="#ffffff">0x00158d0003a010a5 (0xa68f)failed: lqi</text>
<polyline fill="none" stroke="black" points="1437.9,-1413.16 1763.9,-1413.16 "/>
<text text-anchor="middle" x="1600.9" y="-1397.96" font-family="Times,serif" font-size="14.00" fill="#ffffff">Xiaomi Mi power plug ZigBee (ZNCZ02LM)</text>
<polyline fill="none" stroke="black" points="1437.9,-1390.16 1763.9,-1390.16 "/>
<text text-anchor="middle" x="1600.9" y="-1374.96" font-family="Times,serif" font-size="14.00" fill="#ffffff">4 months ago</text>
</g>
<!-- 0x00158d0003a010a5&#45;&gt;0x00124b00039d69ed -->
<g id="edge2" class="edge">
<title>0x00158d0003a010a5&#45;&gt;0x00124b00039d69ed</title>
<path fill="none" stroke="#994444" stroke-width="0.5" d="M1550.95,-1367.06C1435.04,-1260.05 1149.24,-996.21 1038.54,-894.02"/>
<polygon fill="#994444" stroke="#994444" stroke-width="0.5" points="1040.91,-891.44 1031.19,-887.23 1036.16,-896.59 1040.91,-891.44"/>
<text text-anchor="middle" x="1289.74" y="-1134.34" font-family="Times,serif" font-size="14.00">0</text>
</g>
<!-- 0x00158d000391f252 -->
<g id="node4" class="node">
<title>0x00158d000391f252</title>
<path fill="#4ea3e0" stroke="black" d="M1121.17,-1584.66C1121.17,-1584.66 1423.17,-1584.66 1423.17,-1584.66 1429.17,-1584.66 1435.17,-1590.66 1435.17,-1596.66 1435.17,-1596.66 1435.17,-1664.66 1435.17,-1664.66 1435.17,-1670.66 1429.17,-1676.66 1423.17,-1676.66 1423.17,-1676.66 1121.17,-1676.66 1121.17,-1676.66 1115.17,-1676.66 1109.17,-1670.66 1109.17,-1664.66 1109.17,-1664.66 1109.17,-1596.66 1109.17,-1596.66 1109.17,-1590.66 1115.17,-1584.66 1121.17,-1584.66"/>
<text text-anchor="middle" x="1272.17" y="-1661.46" font-family="Times,serif" font-size="14.00" fill="#ffffff">0x00158d000391f252</text>
<polyline fill="none" stroke="black" points="1109.17,-1653.66 1435.17,-1653.66 "/>
<text text-anchor="middle" x="1272.17" y="-1638.46" font-family="Times,serif" font-size="14.00" fill="#ffffff">0x00158d000391f252 (0x2996)failed: lqi</text>
<polyline fill="none" stroke="black" points="1109.17,-1630.66 1435.17,-1630.66 "/>
<text text-anchor="middle" x="1272.17" y="-1615.46" font-family="Times,serif" font-size="14.00" fill="#ffffff">Xiaomi Mi power plug ZigBee (ZNCZ02LM)</text>
<polyline fill="none" stroke="black" points="1109.17,-1607.66 1435.17,-1607.66 "/>
<text text-anchor="middle" x="1272.17" y="-1592.46" font-family="Times,serif" font-size="14.00" fill="#ffffff">2 weeks, 6 days ago</text>
</g>
<!-- 0x00158d000391f252&#45;&gt;0x00124b00039d69ed -->
<g id="edge3" class="edge">
<title>0x00158d000391f252&#45;&gt;0x00124b00039d69ed</title>
<path fill="none" stroke="#994444" stroke-width="0.5" d="M1255.69,-1584.61C1206.05,-1445.92 1058.41,-1033.38 1009.59,-896.98"/>
<polygon fill="#994444" stroke="#994444" stroke-width="0.5" points="1012.78,-895.51 1006.12,-887.27 1006.19,-897.86 1012.78,-895.51"/>
<text text-anchor="middle" x="1127.64" y="-1244.6" font-family="Times,serif" font-size="14.00">0</text>
</g>
<!-- 0x00158d00042446ec -->
<g id="node5" class="node">
<title>0x00158d00042446ec</title>
<path fill="#fff8ce" stroke="black" stroke-dasharray="5,2" d="M476.17,-1597.8C476.17,-1597.8 1034.17,-1597.8 1034.17,-1597.8 1040.17,-1597.8 1046.17,-1603.8 1046.17,-1609.8 1046.17,-1609.8 1046.17,-1677.8 1046.17,-1677.8 1046.17,-1683.8 1040.17,-1689.8 1034.17,-1689.8 1034.17,-1689.8 476.17,-1689.8 476.17,-1689.8 470.17,-1689.8 464.17,-1683.8 464.17,-1677.8 464.17,-1677.8 464.17,-1609.8 464.17,-1609.8 464.17,-1603.8 470.17,-1597.8 476.17,-1597.8"/>
<text text-anchor="middle" x="755.17" y="-1674.6" font-family="Times,serif" font-size="14.00" fill="#000000">0x00158d00042446ec</text>
<polyline fill="none" stroke="black" stroke-dasharray="5,2" points="464.17,-1666.8 1046.17,-1666.8 "/>
<text text-anchor="middle" x="755.17" y="-1651.6" font-family="Times,serif" font-size="14.00" fill="#000000">0x00158d00042446ec (0xcc2d)</text>
<polyline fill="none" stroke="black" stroke-dasharray="5,2" points="464.17,-1643.8 1046.17,-1643.8 "/>
<text text-anchor="middle" x="755.17" y="-1628.6" font-family="Times,serif" font-size="14.00" fill="#000000">Xiaomi Aqara double key wireless wall switch (2018 model) (WXKG02LM_rev2)</text>
<polyline fill="none" stroke="black" stroke-dasharray="5,2" points="464.17,-1620.8 1046.17,-1620.8 "/>
<text text-anchor="middle" x="755.17" y="-1605.6" font-family="Times,serif" font-size="14.00" fill="#000000">1 hour, 10 minutes ago</text>
</g>
<!-- 0x00158d00042446ec&#45;&gt;0x00124b00039d69ed -->
<g id="edge4" class="edge">
<title>0x00158d00042446ec&#45;&gt;0x00124b00039d69ed</title>
<path fill="none" stroke="#994444" d="M769.12,-1597.56C811.51,-1456.97 938.49,-1035.85 980.25,-897.35"/>
<polygon fill="#994444" stroke="#994444" points="983.69,-898.08 983.22,-887.49 976.98,-896.06 983.69,-898.08"/>
<text text-anchor="middle" x="860.68" y="-1251.25" font-family="Times,serif" font-size="14.00">170</text>
</g>
<!-- 0x00158d00040356af -->
<g id="node6" class="node">
<title>0x00158d00040356af</title>
<path fill="#fff8ce" stroke="black" stroke-dasharray="5,2" d="M163.89,-1292.6C163.89,-1292.6 486.89,-1292.6 486.89,-1292.6 492.89,-1292.6 498.89,-1298.6 498.89,-1304.6 498.89,-1304.6 498.89,-1372.6 498.89,-1372.6 498.89,-1378.6 492.89,-1384.6 486.89,-1384.6 486.89,-1384.6 163.89,-1384.6 163.89,-1384.6 157.89,-1384.6 151.89,-1378.6 151.89,-1372.6 151.89,-1372.6 151.89,-1304.6 151.89,-1304.6 151.89,-1298.6 157.89,-1292.6 163.89,-1292.6"/>
<text text-anchor="middle" x="325.39" y="-1369.4" font-family="Times,serif" font-size="14.00" fill="#000000">0x00158d00040356af</text>
<polyline fill="none" stroke="black" stroke-dasharray="5,2" points="151.89,-1361.6 498.89,-1361.6 "/>
<text text-anchor="middle" x="325.39" y="-1346.4" font-family="Times,serif" font-size="14.00" fill="#000000">0x00158d00040356af (0xb844)</text>
<polyline fill="none" stroke="black" stroke-dasharray="5,2" points="151.89,-1338.6 498.89,-1338.6 "/>
<text text-anchor="middle" x="325.39" y="-1323.4" font-family="Times,serif" font-size="14.00" fill="#000000">Xiaomi Aqara water leak sensor (SJCGQ11LM)</text>
<polyline fill="none" stroke="black" stroke-dasharray="5,2" points="151.89,-1315.6 498.89,-1315.6 "/>
<text text-anchor="middle" x="325.39" y="-1300.4" font-family="Times,serif" font-size="14.00" fill="#000000">47 minutes, 7 seconds ago</text>
</g>
<!-- 0x00158d00040356af&#45;&gt;0x00124b00039d69ed -->
<g id="edge5" class="edge">
<title>0x00158d00040356af&#45;&gt;0x00124b00039d69ed</title>
<path fill="none" stroke="#994444" d="M388.87,-1292.45C518.98,-1197.84 814.07,-983.28 937.65,-893.43"/>
<polygon fill="#994444" stroke="#994444" points="939.86,-896.15 945.89,-887.44 935.74,-890.49 939.86,-896.15"/>
<text text-anchor="middle" x="649.26" y="-1096.74" font-family="Times,serif" font-size="14.00">170</text>
</g>
<!-- 0x00158d000405811b -->
<g id="node7" class="node">
<title>0x00158d000405811b</title>
<path fill="#fff8ce" stroke="black" stroke-dasharray="5,2" d="M12,-906.9C12,-906.9 335,-906.9 335,-906.9 341,-906.9 347,-912.9 347,-918.9 347,-918.9 347,-986.9 347,-986.9 347,-992.9 341,-998.9 335,-998.9 335,-998.9 12,-998.9 12,-998.9 6,-998.9 0,-992.9 0,-986.9 0,-986.9 0,-918.9 0,-918.9 0,-912.9 6,-906.9 12,-906.9"/>
<text text-anchor="middle" x="173.5" y="-983.7" font-family="Times,serif" font-size="14.00" fill="#000000">0x00158d000405811b</text>
<polyline fill="none" stroke="black" stroke-dasharray="5,2" points="0,-975.9 347,-975.9 "/>
<text text-anchor="middle" x="173.5" y="-960.7" font-family="Times,serif" font-size="14.00" fill="#000000">0x00158d000405811b (0x8dbd)</text>
<polyline fill="none" stroke="black" stroke-dasharray="5,2" points="0,-952.9 347,-952.9 "/>
<text text-anchor="middle" x="173.5" y="-937.7" font-family="Times,serif" font-size="14.00" fill="#000000">Xiaomi Aqara water leak sensor (SJCGQ11LM)</text>
<polyline fill="none" stroke="black" stroke-dasharray="5,2" points="0,-929.9 347,-929.9 "/>
<text text-anchor="middle" x="173.5" y="-914.7" font-family="Times,serif" font-size="14.00" fill="#000000">39 minutes, 47 seconds ago</text>
</g>
<!-- 0x00158d000405811b&#45;&gt;0x00124b00039d69ed -->
<g id="edge6" class="edge">
<title>0x00158d000405811b&#45;&gt;0x00124b00039d69ed</title>
<path fill="none" stroke="#994444" d="M347.2,-931.67C500.64,-912.92 721.13,-885.97 860.86,-868.89"/>
<polygon fill="#994444" stroke="#994444" points="861.7,-872.31 871.2,-867.63 860.85,-865.37 861.7,-872.31"/>
<text text-anchor="middle" x="590.03" y="-904.08" font-family="Times,serif" font-size="14.00">170</text>
</g>
<!-- 0x00158d0004035e3e -->
<g id="node8" class="node">
<title>0x00158d0004035e3e</title>
<path fill="#fff8ce" stroke="black" stroke-dasharray="5,2" d="M66.52,-495.98C66.52,-495.98 389.52,-495.98 389.52,-495.98 395.52,-495.98 401.52,-501.98 401.52,-507.98 401.52,-507.98 401.52,-575.98 401.52,-575.98 401.52,-581.98 395.52,-587.98 389.52,-587.98 389.52,-587.98 66.52,-587.98 66.52,-587.98 60.52,-587.98 54.52,-581.98 54.52,-575.98 54.52,-575.98 54.52,-507.98 54.52,-507.98 54.52,-501.98 60.52,-495.98 66.52,-495.98"/>
<text text-anchor="middle" x="228.02" y="-572.78" font-family="Times,serif" font-size="14.00" fill="#000000">0x00158d0004035e3e</text>
<polyline fill="none" stroke="black" stroke-dasharray="5,2" points="54.52,-564.98 401.52,-564.98 "/>
<text text-anchor="middle" x="228.02" y="-549.78" font-family="Times,serif" font-size="14.00" fill="#000000">0x00158d0004035e3e (0xf58b)</text>
<polyline fill="none" stroke="black" stroke-dasharray="5,2" points="54.52,-541.98 401.52,-541.98 "/>
<text text-anchor="middle" x="228.02" y="-526.78" font-family="Times,serif" font-size="14.00" fill="#000000">Xiaomi Aqara water leak sensor (SJCGQ11LM)</text>
<polyline fill="none" stroke="black" stroke-dasharray="5,2" points="54.52,-518.98 401.52,-518.98 "/>
<text text-anchor="middle" x="228.02" y="-503.78" font-family="Times,serif" font-size="14.00" fill="#000000">1 hour, 8 minutes ago</text>
</g>
<!-- 0x00158d0004035e3e&#45;&gt;0x00124b00039d69ed -->
<g id="edge7" class="edge">
<title>0x00158d0004035e3e&#45;&gt;0x00124b00039d69ed</title>
<path fill="none" stroke="#994444" d="M341.42,-587.99C492.7,-649.37 757.85,-756.95 899.01,-814.22"/>
<polygon fill="#994444" stroke="#994444" points="897.96,-817.57 908.54,-818.09 900.59,-811.09 897.96,-817.57"/>
<text text-anchor="middle" x="606.21" y="-704.9" font-family="Times,serif" font-size="14.00">170</text>
</g>
<!-- 0x00158d00067cb0c9 -->
<g id="node9" class="node">
<title>0x00158d00067cb0c9</title>
<path fill="#fff8ce" stroke="black" stroke-dasharray="5,2" d="M294.67,-103.5C294.67,-103.5 824.67,-103.5 824.67,-103.5 830.67,-103.5 836.67,-109.5 836.67,-115.5 836.67,-115.5 836.67,-183.5 836.67,-183.5 836.67,-189.5 830.67,-195.5 824.67,-195.5 824.67,-195.5 294.67,-195.5 294.67,-195.5 288.67,-195.5 282.67,-189.5 282.67,-183.5 282.67,-183.5 282.67,-115.5 282.67,-115.5 282.67,-109.5 288.67,-103.5 294.67,-103.5"/>
<text text-anchor="middle" x="559.67" y="-180.3" font-family="Times,serif" font-size="14.00" fill="#000000">0x00158d00067cb0c9</text>
<polyline fill="none" stroke="black" stroke-dasharray="5,2" points="282.67,-172.5 836.67,-172.5 "/>
<text text-anchor="middle" x="559.67" y="-157.3" font-family="Times,serif" font-size="14.00" fill="#000000">0x00158d00067cb0c9 (0x8c1d)</text>
<polyline fill="none" stroke="black" stroke-dasharray="5,2" points="282.67,-149.5 836.67,-149.5 "/>
<text text-anchor="middle" x="559.67" y="-134.3" font-family="Times,serif" font-size="14.00" fill="#000000">Xiaomi Aqara temperature, humidity and pressure sensor (WSDCGQ11LM)</text>
<polyline fill="none" stroke="black" stroke-dasharray="5,2" points="282.67,-126.5 836.67,-126.5 "/>
<text text-anchor="middle" x="559.67" y="-111.3" font-family="Times,serif" font-size="14.00" fill="#000000">25 minutes, 3 seconds ago</text>
</g>
<!-- 0x00158d00067cb0c9&#45;&gt;0x00124b00039d69ed -->
<g id="edge8" class="edge">
<title>0x00158d00067cb0c9&#45;&gt;0x00124b00039d69ed</title>
<path fill="none" stroke="#994444" d="M588.15,-195.64C667.44,-324.09 889.97,-684.57 967.05,-809.43"/>
<polygon fill="#994444" stroke="#994444" points="964.11,-811.34 972.34,-818.01 970.07,-807.66 964.11,-811.34"/>
<text text-anchor="middle" x="763.6" y="-506.33" font-family="Times,serif" font-size="14.00">170</text>
</g>
<!-- 0x00158d0004244bda -->
<g id="node10" class="node">
<title>0x00158d0004244bda</title>
<path fill="#fff8ce" stroke="black" stroke-dasharray="5,2" d="M896.24,-0.5C896.24,-0.5 1454.24,-0.5 1454.24,-0.5 1460.24,-0.5 1466.24,-6.5 1466.24,-12.5 1466.24,-12.5 1466.24,-80.5 1466.24,-80.5 1466.24,-86.5 1460.24,-92.5 1454.24,-92.5 1454.24,-92.5 896.24,-92.5 896.24,-92.5 890.24,-92.5 884.24,-86.5 884.24,-80.5 884.24,-80.5 884.24,-12.5 884.24,-12.5 884.24,-6.5 890.24,-0.5 896.24,-0.5"/>
<text text-anchor="middle" x="1175.24" y="-77.3" font-family="Times,serif" font-size="14.00" fill="#000000">0x00158d0004244bda</text>
<polyline fill="none" stroke="black" stroke-dasharray="5,2" points="884.24,-69.5 1466.24,-69.5 "/>
<text text-anchor="middle" x="1175.24" y="-54.3" font-family="Times,serif" font-size="14.00" fill="#000000">0x00158d0004244bda (0x6b6e)</text>
<polyline fill="none" stroke="black" stroke-dasharray="5,2" points="884.24,-46.5 1466.24,-46.5 "/>
<text text-anchor="middle" x="1175.24" y="-31.3" font-family="Times,serif" font-size="14.00" fill="#000000">Xiaomi Aqara double key wireless wall switch (2018 model) (WXKG02LM_rev2)</text>
<polyline fill="none" stroke="black" stroke-dasharray="5,2" points="884.24,-23.5 1466.24,-23.5 "/>
<text text-anchor="middle" x="1175.24" y="-8.3" font-family="Times,serif" font-size="14.00" fill="#000000">1 hour, 5 minutes ago</text>
</g>
<!-- 0x00158d0004244bda&#45;&gt;0x00124b00039d69ed -->
<g id="edge9" class="edge">
<title>0x00158d0004244bda&#45;&gt;0x00124b00039d69ed</title>
<path fill="none" stroke="#994444" d="M1164.83,-92.74C1132.71,-235.37 1035.45,-667.36 1003.8,-807.93"/>
<polygon fill="#994444" stroke="#994444" points="1000.33,-807.4 1001.55,-817.92 1007.16,-808.94 1000.33,-807.4"/>
<text text-anchor="middle" x="1070.31" y="-454.13" font-family="Times,serif" font-size="14.00">170</text>
</g>
<!-- 0x50325ffffe6ca5da -->
<g id="node11" class="node">
<title>0x50325ffffe6ca5da</title>
<path fill="#fff8ce" stroke="black" stroke-dasharray="5,2" d="M1472.47,-256.13C1472.47,-256.13 1747.47,-256.13 1747.47,-256.13 1753.47,-256.13 1759.47,-262.13 1759.47,-268.13 1759.47,-268.13 1759.47,-336.13 1759.47,-336.13 1759.47,-342.13 1753.47,-348.13 1747.47,-348.13 1747.47,-348.13 1472.47,-348.13 1472.47,-348.13 1466.47,-348.13 1460.47,-342.13 1460.47,-336.13 1460.47,-336.13 1460.47,-268.13 1460.47,-268.13 1460.47,-262.13 1466.47,-256.13 1472.47,-256.13"/>
<text text-anchor="middle" x="1609.97" y="-332.93" font-family="Times,serif" font-size="14.00" fill="#000000">0x50325ffffe6ca5da</text>
<polyline fill="none" stroke="black" stroke-dasharray="5,2" points="1460.47,-325.13 1759.47,-325.13 "/>
<text text-anchor="middle" x="1609.97" y="-309.93" font-family="Times,serif" font-size="14.00" fill="#000000">0x50325ffffe6ca5da (0xe477)</text>
<polyline fill="none" stroke="black" stroke-dasharray="5,2" points="1460.47,-302.13 1759.47,-302.13 "/>
<text text-anchor="middle" x="1609.97" y="-286.93" font-family="Times,serif" font-size="14.00" fill="#000000">IKEA TRADFRI ON/OFF switch (E1743)</text>
<polyline fill="none" stroke="black" stroke-dasharray="5,2" points="1460.47,-279.13 1759.47,-279.13 "/>
<text text-anchor="middle" x="1609.97" y="-263.93" font-family="Times,serif" font-size="14.00" fill="#000000">1 hour, 43 minutes ago</text>
</g>
<!-- 0x50325ffffe6ca5da&#45;&gt;0x00124b00039d69ed -->
<g id="edge10" class="edge">
<title>0x50325ffffe6ca5da&#45;&gt;0x00124b00039d69ed</title>
<path fill="none" stroke="#994444" d="M1558.23,-348.36C1440.27,-453.74 1152.95,-710.41 1040.22,-811.12"/>
<polygon fill="#994444" stroke="#994444" points="1037.85,-808.54 1032.73,-817.81 1042.52,-813.76 1037.85,-808.54"/>
<text text-anchor="middle" x="1285.22" y="-583.54" font-family="Times,serif" font-size="14.00">170</text>
</g>
</g>
</svg>
