<?xml version="1.0" encoding="UTF-8" standalone="no"?>
<!DOCTYPE svg PUBLIC "-//W3C//DTD SVG 1.1//EN"
 "http://www.w3.org/Graphics/SVG/1.1/DTD/svg11.dtd">
<!-- Generated by graphviz version 2.43.0 (0)
 -->
<!-- Title: G Pages: 1 -->
<svg width="1515pt" height="1269pt"
 viewBox="0.00 0.00 1514.78 1269.29" xmlns="http://www.w3.org/2000/svg" xmlns:xlink="http://www.w3.org/1999/xlink">
<g id="graph0" class="graph" transform="scale(1 1) rotate(0) translate(4 1265.29)">
<title>G</title>
<polygon fill="white" stroke="transparent" points="-4,4 -4,-1265.29 1510.78,-1265.29 1510.78,4 -4,4"/>
<!-- 0x00124b00039d69ed -->
<g id="node1" class="node">
<title>0x00124b00039d69ed</title>
<polygon fill="#e04e5d" stroke="black" stroke-width="2" points="652.66,-594.14 652.66,-663.14 853.66,-663.14 853.66,-594.14 652.66,-594.14"/>
<text text-anchor="middle" x="753.16" y="-647.94" font-family="Times,serif" font-size="14.00" fill="#ffffff">Coordinator</text>
<polyline fill="none" stroke="black" stroke-width="2" points="652.66,-640.14 853.66,-640.14 "/>
<text text-anchor="middle" x="753.16" y="-624.94" font-family="Times,serif" font-size="14.00" fill="#ffffff">0x00124b00039d69ed (0)</text>
<polyline fill="none" stroke="black" stroke-width="2" points="652.66,-617.14 853.66,-617.14 "/>
<text text-anchor="middle" x="753.16" y="-601.94" font-family="Times,serif" font-size="14.00" fill="#ffffff">0 seconds ago</text>
</g>
<!-- 0x00158d0003a010a5 -->
<g id="node2" class="node">
<title>0x00158d0003a010a5</title>
<path fill="#4ea3e0" stroke="black" d="M1192.78,-582.64C1192.78,-582.64 1494.78,-582.64 1494.78,-582.64 1500.78,-582.64 1506.78,-588.64 1506.78,-594.64 1506.78,-594.64 1506.78,-662.64 1506.78,-662.64 1506.78,-668.64 1500.78,-674.64 1494.78,-674.64 1494.78,-674.64 1192.78,-674.64 1192.78,-674.64 1186.78,-674.64 1180.78,-668.64 1180.78,-662.64 1180.78,-662.64 1180.78,-594.64 1180.78,-594.64 1180.78,-588.64 1186.78,-582.64 1192.78,-582.64"/>
<text text-anchor="middle" x="1343.78" y="-659.44" font-family="Times,serif" font-size="14.00" fill="#ffffff">0x00158d0003a010a5</text>
<polyline fill="none" stroke="black" points="1180.78,-651.64 1506.78,-651.64 "/>
<text text-anchor="middle" x="1343.78" y="-636.44" font-family="Times,serif" font-size="14.00" fill="#ffffff">0x00158d0003a010a5 (42639)failed: lqi</text>
<polyline fill="none" stroke="black" points="1180.78,-628.64 1506.78,-628.64 "/>
<text text-anchor="middle" x="1343.78" y="-613.44" font-family="Times,serif" font-size="14.00" fill="#ffffff">Xiaomi Mi power plug ZigBee (ZNCZ02LM)</text>
<polyline fill="none" stroke="black" points="1180.78,-605.64 1506.78,-605.64 "/>
<text text-anchor="middle" x="1343.78" y="-590.44" font-family="Times,serif" font-size="14.00" fill="#ffffff">3 months, 2 weeks ago</text>
</g>
<!-- 0x00158d0003a010a5&#45;&gt;0x00124b00039d69ed -->
<g id="edge1" class="edge">
<title>0x00158d0003a010a5&#45;&gt;0x00124b00039d69ed</title>
<path fill="none" stroke="#994444" stroke-width="0.5" d="M1180.43,-628.64C1079.67,-628.64 953.11,-628.64 863.96,-628.64"/>
<polygon fill="#994444" stroke="#994444" stroke-width="0.5" points="863.83,-625.14 853.83,-628.64 863.83,-632.14 863.83,-625.14"/>
<text text-anchor="middle" x="1017.2" y="-632.44" font-family="Times,serif" font-size="14.00">0</text>
</g>
<!-- 0x00158d000391f252 -->
<g id="node3" class="node">
<title>0x00158d000391f252</title>
<path fill="#4ea3e0" stroke="black" d="M1063.68,-951.19C1063.68,-951.19 1365.68,-951.19 1365.68,-951.19 1371.68,-951.19 1377.68,-957.19 1377.68,-963.19 1377.68,-963.19 1377.68,-1031.19 1377.68,-1031.19 1377.68,-1037.19 1371.68,-1043.19 1365.68,-1043.19 1365.68,-1043.19 1063.68,-1043.19 1063.68,-1043.19 1057.68,-1043.19 1051.68,-1037.19 1051.68,-1031.19 1051.68,-1031.19 1051.68,-963.19 1051.68,-963.19 1051.68,-957.19 1057.68,-951.19 1063.68,-951.19"/>
<text text-anchor="middle" x="1214.68" y="-1027.99" font-family="Times,serif" font-size="14.00" fill="#ffffff">0x00158d000391f252</text>
<polyline fill="none" stroke="black" points="1051.68,-1020.19 1377.68,-1020.19 "/>
<text text-anchor="middle" x="1214.68" y="-1004.99" font-family="Times,serif" font-size="14.00" fill="#ffffff">0x00158d000391f252 (10646)failed: lqi</text>
<polyline fill="none" stroke="black" points="1051.68,-997.19 1377.68,-997.19 "/>
<text text-anchor="middle" x="1214.68" y="-981.99" font-family="Times,serif" font-size="14.00" fill="#ffffff">Xiaomi Mi power plug ZigBee (ZNCZ02LM)</text>
<polyline fill="none" stroke="black" points="1051.68,-974.19 1377.68,-974.19 "/>
<text text-anchor="middle" x="1214.68" y="-958.99" font-family="Times,serif" font-size="14.00" fill="#ffffff">11 hours, 27 minutes ago</text>
</g>
<!-- 0x00158d000391f252&#45;&gt;0x00124b00039d69ed -->
<g id="edge2" class="edge">
<title>0x00158d000391f252&#45;&gt;0x00124b00039d69ed</title>
<path fill="none" stroke="#994444" stroke-width="0.5" d="M1156.69,-950.89C1065.72,-878.24 890.92,-738.65 804.34,-669.51"/>
<polygon fill="#994444" stroke="#994444" stroke-width="0.5" points="806.49,-666.75 796.49,-663.24 802.12,-672.22 806.49,-666.75"/>
<text text-anchor="middle" x="975.52" y="-814" font-family="Times,serif" font-size="14.00">0</text>
</g>
<!-- 0x00158d00042446ec -->
<g id="node4" class="node">
<title>0x00158d00042446ec</title>
<path fill="#fff8ce" stroke="black" stroke-dasharray="5,2" d="M615.72,-1168.79C615.72,-1168.79 1035.72,-1168.79 1035.72,-1168.79 1041.72,-1168.79 1047.72,-1174.79 1047.72,-1180.79 1047.72,-1180.79 1047.72,-1248.79 1047.72,-1248.79 1047.72,-1254.79 1041.72,-1260.79 1035.72,-1260.79 1035.72,-1260.79 615.72,-1260.79 615.72,-1260.79 609.72,-1260.79 603.72,-1254.79 603.72,-1248.79 603.72,-1248.79 603.72,-1180.79 603.72,-1180.79 603.72,-1174.79 609.72,-1168.79 615.72,-1168.79"/>
<text text-anchor="middle" x="825.72" y="-1245.59" font-family="Times,serif" font-size="14.00" fill="#000000">0x00158d00042446ec</text>
<polyline fill="none" stroke="black" stroke-dasharray="5,2" points="603.72,-1237.79 1047.72,-1237.79 "/>
<text text-anchor="middle" x="825.72" y="-1222.59" font-family="Times,serif" font-size="14.00" fill="#000000">0x00158d00042446ec (52269)</text>
<polyline fill="none" stroke="black" stroke-dasharray="5,2" points="603.72,-1214.79 1047.72,-1214.79 "/>
<text text-anchor="middle" x="825.72" y="-1199.59" font-family="Times,serif" font-size="14.00" fill="#000000">Xiaomi Aqara double key wireless wall switch (WXKG02LM)</text>
<polyline fill="none" stroke="black" stroke-dasharray="5,2" points="603.72,-1191.79 1047.72,-1191.79 "/>
<text text-anchor="middle" x="825.72" y="-1176.59" font-family="Times,serif" font-size="14.00" fill="#000000">45 minutes, 34 seconds ago</text>
</g>
<!-- 0x00158d00042446ec&#45;&gt;0x00124b00039d69ed -->
<g id="edge3" class="edge">
<title>0x00158d00042446ec&#45;&gt;0x00124b00039d69ed</title>
<path fill="none" stroke="#994444" d="M819.97,-1168.3C806.31,-1058 772.09,-781.6 758.68,-673.23"/>
<polygon fill="#994444" stroke="#994444" points="762.15,-672.77 757.44,-663.27 755.2,-673.63 762.15,-672.77"/>
<text text-anchor="middle" x="779.82" y="-924.56" font-family="Times,serif" font-size="14.00">29</text>
</g>
<!-- 0x00158d00040356af -->
<g id="node5" class="node">
<title>0x00158d00040356af</title>
<path fill="#fff8ce" stroke="black" stroke-dasharray="5,2" d="M225.65,-1046.18C225.65,-1046.18 548.65,-1046.18 548.65,-1046.18 554.65,-1046.18 560.65,-1052.18 560.65,-1058.18 560.65,-1058.18 560.65,-1126.18 560.65,-1126.18 560.65,-1132.18 554.65,-1138.18 548.65,-1138.18 548.65,-1138.18 225.65,-1138.18 225.65,-1138.18 219.65,-1138.18 213.65,-1132.18 213.65,-1126.18 213.65,-1126.18 213.65,-1058.18 213.65,-1058.18 213.65,-1052.18 219.65,-1046.18 225.65,-1046.18"/>
<text text-anchor="middle" x="387.15" y="-1122.98" font-family="Times,serif" font-size="14.00" fill="#000000">0x00158d00040356af</text>
<polyline fill="none" stroke="black" stroke-dasharray="5,2" points="213.65,-1115.18 560.65,-1115.18 "/>
<text text-anchor="middle" x="387.15" y="-1099.98" font-family="Times,serif" font-size="14.00" fill="#000000">0x00158d00040356af (47172)</text>
<polyline fill="none" stroke="black" stroke-dasharray="5,2" points="213.65,-1092.18 560.65,-1092.18 "/>
<text text-anchor="middle" x="387.15" y="-1076.98" font-family="Times,serif" font-size="14.00" fill="#000000">Xiaomi Aqara water leak sensor (SJCGQ11LM)</text>
<polyline fill="none" stroke="black" stroke-dasharray="5,2" points="213.65,-1069.18 560.65,-1069.18 "/>
<text text-anchor="middle" x="387.15" y="-1053.98" font-family="Times,serif" font-size="14.00" fill="#000000">24 seconds ago</text>
</g>
<!-- 0x00158d00040356af&#45;&gt;0x00124b00039d69ed -->
<g id="edge4" class="edge">
<title>0x00158d00040356af&#45;&gt;0x00124b00039d69ed</title>
<path fill="none" stroke="#994444" d="M423.58,-1046.04C494.61,-956.08 650.65,-758.45 719.45,-671.33"/>
<polygon fill="#994444" stroke="#994444" points="722.38,-673.27 725.83,-663.25 716.88,-668.93 722.38,-673.27"/>
<text text-anchor="middle" x="566.51" y="-862.48" font-family="Times,serif" font-size="14.00">1</text>
</g>
<!-- 0x00158d000405811b -->
<g id="node6" class="node">
<title>0x00158d000405811b</title>
<path fill="#fff8ce" stroke="black" stroke-dasharray="5,2" d="M12,-695.93C12,-695.93 335,-695.93 335,-695.93 341,-695.93 347,-701.93 347,-707.93 347,-707.93 347,-775.93 347,-775.93 347,-781.93 341,-787.93 335,-787.93 335,-787.93 12,-787.93 12,-787.93 6,-787.93 0,-781.93 0,-775.93 0,-775.93 0,-707.93 0,-707.93 0,-701.93 6,-695.93 12,-695.93"/>
<text text-anchor="middle" x="173.5" y="-772.73" font-family="Times,serif" font-size="14.00" fill="#000000">0x00158d000405811b</text>
<polyline fill="none" stroke="black" stroke-dasharray="5,2" points="0,-764.93 347,-764.93 "/>
<text text-anchor="middle" x="173.5" y="-749.73" font-family="Times,serif" font-size="14.00" fill="#000000">0x00158d000405811b (36285)</text>
<polyline fill="none" stroke="black" stroke-dasharray="5,2" points="0,-741.93 347,-741.93 "/>
<text text-anchor="middle" x="173.5" y="-726.73" font-family="Times,serif" font-size="14.00" fill="#000000">Xiaomi Aqara water leak sensor (SJCGQ11LM)</text>
<polyline fill="none" stroke="black" stroke-dasharray="5,2" points="0,-718.93 347,-718.93 "/>
<text text-anchor="middle" x="173.5" y="-703.73" font-family="Times,serif" font-size="14.00" fill="#000000">9 minutes, 44 seconds ago</text>
</g>
<!-- 0x00158d000405811b&#45;&gt;0x00124b00039d69ed -->
<g id="edge5" class="edge">
<title>0x00158d000405811b&#45;&gt;0x00124b00039d69ed</title>
<path fill="none" stroke="#994444" d="M347.02,-708.01C442.86,-689.28 559.03,-666.58 642.53,-650.26"/>
<polygon fill="#994444" stroke="#994444" points="643.41,-653.65 652.55,-648.3 642.07,-646.78 643.41,-653.65"/>
<text text-anchor="middle" x="489.78" y="-682.94" font-family="Times,serif" font-size="14.00">1</text>
</g>
<!-- 0x00158d0004035e3e -->
<g id="node7" class="node">
<title>0x00158d0004035e3e</title>
<path fill="#fff8ce" stroke="black" stroke-dasharray="5,2" d="M78.05,-291.01C78.05,-291.01 401.05,-291.01 401.05,-291.01 407.05,-291.01 413.05,-297.01 413.05,-303.01 413.05,-303.01 413.05,-371.01 413.05,-371.01 413.05,-377.01 407.05,-383.01 401.05,-383.01 401.05,-383.01 78.05,-383.01 78.05,-383.01 72.05,-383.01 66.05,-377.01 66.05,-371.01 66.05,-371.01 66.05,-303.01 66.05,-303.01 66.05,-297.01 72.05,-291.01 78.05,-291.01"/>
<text text-anchor="middle" x="239.55" y="-367.81" font-family="Times,serif" font-size="14.00" fill="#000000">0x00158d0004035e3e</text>
<polyline fill="none" stroke="black" stroke-dasharray="5,2" points="66.05,-360.01 413.05,-360.01 "/>
<text text-anchor="middle" x="239.55" y="-344.81" font-family="Times,serif" font-size="14.00" fill="#000000">0x00158d0004035e3e (62859)</text>
<polyline fill="none" stroke="black" stroke-dasharray="5,2" points="66.05,-337.01 413.05,-337.01 "/>
<text text-anchor="middle" x="239.55" y="-321.81" font-family="Times,serif" font-size="14.00" fill="#000000">Xiaomi Aqara water leak sensor (SJCGQ11LM)</text>
<polyline fill="none" stroke="black" stroke-dasharray="5,2" points="66.05,-314.01 413.05,-314.01 "/>
<text text-anchor="middle" x="239.55" y="-298.81" font-family="Times,serif" font-size="14.00" fill="#000000">4 minutes, 32 seconds ago</text>
</g>
<!-- 0x00158d0004035e3e&#45;&gt;0x00124b00039d69ed -->
<g id="edge6" class="edge">
<title>0x00158d0004035e3e&#45;&gt;0x00124b00039d69ed</title>
<path fill="none" stroke="#994444" d="M320.65,-383.06C420.6,-439.81 588.78,-535.3 683.28,-588.96"/>
<polygon fill="#994444" stroke="#994444" points="681.76,-592.12 692.19,-594.02 685.22,-586.04 681.76,-592.12"/>
<text text-anchor="middle" x="496.96" y="-489.81" font-family="Times,serif" font-size="14.00">1</text>
</g>
<!-- 0x00158d00067cb0c9 -->
<g id="node8" class="node">
<title>0x00158d00067cb0c9</title>
<path fill="#fff8ce" stroke="black" stroke-dasharray="5,2" d="M388.39,-0.5C388.39,-0.5 918.39,-0.5 918.39,-0.5 924.39,-0.5 930.39,-6.5 930.39,-12.5 930.39,-12.5 930.39,-80.5 930.39,-80.5 930.39,-86.5 924.39,-92.5 918.39,-92.5 918.39,-92.5 388.39,-92.5 388.39,-92.5 382.39,-92.5 376.39,-86.5 376.39,-80.5 376.39,-80.5 376.39,-12.5 376.39,-12.5 376.39,-6.5 382.39,-0.5 388.39,-0.5"/>
<text text-anchor="middle" x="653.39" y="-77.3" font-family="Times,serif" font-size="14.00" fill="#000000">0x00158d00067cb0c9</text>
<polyline fill="none" stroke="black" stroke-dasharray="5,2" points="376.39,-69.5 930.39,-69.5 "/>
<text text-anchor="middle" x="653.39" y="-54.3" font-family="Times,serif" font-size="14.00" fill="#000000">0x00158d00067cb0c9 (61251)</text>
<polyline fill="none" stroke="black" stroke-dasharray="5,2" points="376.39,-46.5 930.39,-46.5 "/>
<text text-anchor="middle" x="653.39" y="-31.3" font-family="Times,serif" font-size="14.00" fill="#000000">Xiaomi Aqara temperature, humidity and pressure sensor (WSDCGQ11LM)</text>
<polyline fill="none" stroke="black" stroke-dasharray="5,2" points="376.39,-23.5 930.39,-23.5 "/>
<text text-anchor="middle" x="653.39" y="-8.3" font-family="Times,serif" font-size="14.00" fill="#000000">9 minutes, 16 seconds ago</text>
</g>
<!-- 0x00158d00067cb0c9&#45;&gt;0x00124b00039d69ed -->
<g id="edge7" class="edge">
<title>0x00158d00067cb0c9&#45;&gt;0x00124b00039d69ed</title>
<path fill="none" stroke="#994444" d="M661.3,-92.67C680.05,-202.08 727.01,-476.07 745.5,-583.97"/>
<polygon fill="#994444" stroke="#994444" points="742.06,-584.62 747.2,-593.88 748.96,-583.43 742.06,-584.62"/>
<text text-anchor="middle" x="693.9" y="-342.12" font-family="Times,serif" font-size="14.00">28</text>
</g>
<!-- 0x00158d0004244bda -->
<g id="node9" class="node">
<title>0x00158d0004244bda</title>
<path fill="#fff8ce" stroke="black" stroke-dasharray="5,2" d="M965.62,-169.89C965.62,-169.89 1385.62,-169.89 1385.62,-169.89 1391.62,-169.89 1397.62,-175.89 1397.62,-181.89 1397.62,-181.89 1397.62,-249.89 1397.62,-249.89 1397.62,-255.89 1391.62,-261.89 1385.62,-261.89 1385.62,-261.89 965.62,-261.89 965.62,-261.89 959.62,-261.89 953.62,-255.89 953.62,-249.89 953.62,-249.89 953.62,-181.89 953.62,-181.89 953.62,-175.89 959.62,-169.89 965.62,-169.89"/>
<text text-anchor="middle" x="1175.62" y="-246.69" font-family="Times,serif" font-size="14.00" fill="#000000">0x00158d0004244bda</text>
<polyline fill="none" stroke="black" stroke-dasharray="5,2" points="953.62,-238.89 1397.62,-238.89 "/>
<text text-anchor="middle" x="1175.62" y="-223.69" font-family="Times,serif" font-size="14.00" fill="#000000">0x00158d0004244bda (27502)</text>
<polyline fill="none" stroke="black" stroke-dasharray="5,2" points="953.62,-215.89 1397.62,-215.89 "/>
<text text-anchor="middle" x="1175.62" y="-200.69" font-family="Times,serif" font-size="14.00" fill="#000000">Xiaomi Aqara double key wireless wall switch (WXKG02LM)</text>
<polyline fill="none" stroke="black" stroke-dasharray="5,2" points="953.62,-192.89 1397.62,-192.89 "/>
<text text-anchor="middle" x="1175.62" y="-177.69" font-family="Times,serif" font-size="14.00" fill="#000000">16 minutes, 6 seconds ago</text>
</g>
<!-- 0x00158d0004244bda&#45;&gt;0x00124b00039d69ed -->
<g id="edge8" class="edge">
<title>0x00158d0004244bda&#45;&gt;0x00124b00039d69ed</title>
<path fill="none" stroke="#994444" d="M1128.39,-262.04C1045.58,-342.94 875.46,-509.15 795.91,-586.86"/>
<polygon fill="#994444" stroke="#994444" points="793.21,-584.61 788.51,-594.1 798.1,-589.62 793.21,-584.61"/>
<text text-anchor="middle" x="957.15" y="-428.25" font-family="Times,serif" font-size="14.00">1</text>
</g>
</g>
</svg>
