<?xml version="1.0" encoding="UTF-8" standalone="no"?>
<!DOCTYPE svg PUBLIC "-//W3C//DTD SVG 1.1//EN"
 "http://www.w3.org/Graphics/SVG/1.1/DTD/svg11.dtd">
<!-- Generated by graphviz version 8.0.5 (20230430.1635)
 -->
<!-- Title: G Pages: 1 -->
<svg width="1310pt" height="1002pt"
 viewBox="0.00 0.00 1309.56 1002.48" xmlns="http://www.w3.org/2000/svg" xmlns:xlink="http://www.w3.org/1999/xlink">
<g id="graph0" class="graph" transform="scale(1 1) rotate(0) translate(4 998.48)">
<title>G</title>
<polygon fill="white" stroke="none" points="-4,4 -4,-998.48 1305.56,-998.48 1305.56,4 -4,4"/>
<!-- 0x00124b0025791f63 -->
<g id="node1" class="node">
<title>0x00124b0025791f63</title>
<polygon fill="#e04e5d" stroke="black" stroke-width="2" points="517.06,-484.94 517.06,-558.44 705.56,-558.44 705.56,-484.94 517.06,-484.94"/>
<text text-anchor="middle" x="611.31" y="-541.14" font-family="Times,serif" font-size="14.00" fill="#ffffff">Coordinator</text>
<polyline fill="none" stroke="black" stroke-width="2" points="517.06,-533.94 705.56,-533.94"/>
<text text-anchor="middle" x="611.31" y="-516.64" font-family="Times,serif" font-size="14.00" fill="#ffffff">0x00124b0025791f63 (0x0000)</text>
<polyline fill="none" stroke="black" stroke-width="2" points="517.06,-509.44 705.56,-509.44"/>
<text text-anchor="middle" x="611.31" y="-492.14" font-family="Times,serif" font-size="14.00" fill="#ffffff">0 seconds ago</text>
</g>
<!-- 0x00158d00067cb0c9 -->
<g id="node2" class="node">
<title>0x00158d00067cb0c9</title>
<path fill="#fff8ce" stroke="black" stroke-dasharray="5,2" d="M877.56,-472.69C877.56,-472.69 1289.56,-472.69 1289.56,-472.69 1295.56,-472.69 1301.56,-478.69 1301.56,-484.69 1301.56,-484.69 1301.56,-558.69 1301.56,-558.69 1301.56,-564.69 1295.56,-570.69 1289.56,-570.69 1289.56,-570.69 877.56,-570.69 877.56,-570.69 871.56,-570.69 865.56,-564.69 865.56,-558.69 865.56,-558.69 865.56,-484.69 865.56,-484.69 865.56,-478.69 871.56,-472.69 877.56,-472.69"/>
<text text-anchor="middle" x="1083.56" y="-553.39" font-family="Times,serif" font-size="14.00" fill="#000000">0x00158d00067cb0c9</text>
<polyline fill="none" stroke="black" stroke-dasharray="5,2" points="865.56,-546.19 1301.56,-546.19"/>
<text text-anchor="middle" x="1083.56" y="-528.89" font-family="Times,serif" font-size="14.00" fill="#000000">0x00158d00067cb0c9 (0xcd83)</text>
<polyline fill="none" stroke="black" stroke-dasharray="5,2" points="865.56,-521.69 1301.56,-521.69"/>
<text text-anchor="middle" x="1083.56" y="-504.39" font-family="Times,serif" font-size="14.00" fill="#000000">Xiaomi Aqara temperature, humidity and pressure sensor (WSDCGQ11LM)</text>
<polyline fill="none" stroke="black" stroke-dasharray="5,2" points="865.56,-497.19 1301.56,-497.19"/>
<text text-anchor="middle" x="1083.56" y="-479.89" font-family="Times,serif" font-size="14.00" fill="#000000">10 minutes, 22 seconds ago</text>
</g>
<!-- 0x00158d00067cb0c9&#45;&gt;0x00124b0025791f63 -->
<g id="edge1" class="edge">
<title>0x00158d00067cb0c9&#45;&gt;0x00124b0025791f63</title>
<path fill="none" stroke="#994444" d="M865.75,-521.69C813.69,-521.69 760.43,-521.69 716.18,-521.69"/>
<polygon fill="#994444" stroke="#994444" points="716.42,-518.19 706.42,-521.69 716.42,-525.19 716.42,-518.19"/>
<text text-anchor="middle" x="780.84" y="-524.89" font-family="Times,serif" font-size="14.00">144</text>
</g>
<!-- 0x00158d00042446ec -->
<g id="node3" class="node">
<title>0x00158d00042446ec</title>
<path fill="#fff8ce" stroke="black" stroke-dasharray="5,2" d="M597.82,-895.98C597.82,-895.98 1043.57,-895.98 1043.57,-895.98 1049.57,-895.98 1055.57,-901.98 1055.57,-907.98 1055.57,-907.98 1055.57,-981.98 1055.57,-981.98 1055.57,-987.98 1049.57,-993.98 1043.57,-993.98 1043.57,-993.98 597.82,-993.98 597.82,-993.98 591.82,-993.98 585.82,-987.98 585.82,-981.98 585.82,-981.98 585.82,-907.98 585.82,-907.98 585.82,-901.98 591.82,-895.98 597.82,-895.98"/>
<text text-anchor="middle" x="820.7" y="-976.68" font-family="Times,serif" font-size="14.00" fill="#000000">0x00158d00042446ec</text>
<polyline fill="none" stroke="black" stroke-dasharray="5,2" points="585.82,-969.48 1055.57,-969.48"/>
<text text-anchor="middle" x="820.7" y="-952.18" font-family="Times,serif" font-size="14.00" fill="#000000">0x00158d00042446ec (0xc892)</text>
<polyline fill="none" stroke="black" stroke-dasharray="5,2" points="585.82,-944.98 1055.57,-944.98"/>
<text text-anchor="middle" x="820.7" y="-927.68" font-family="Times,serif" font-size="14.00" fill="#000000">Xiaomi Aqara double key wireless wall switch (2018 model) (WXKG02LM_rev2)</text>
<polyline fill="none" stroke="black" stroke-dasharray="5,2" points="585.82,-920.48 1055.57,-920.48"/>
<text text-anchor="middle" x="820.7" y="-903.18" font-family="Times,serif" font-size="14.00" fill="#000000">17 minutes, 3 seconds ago</text>
</g>
<!-- 0x00158d00042446ec&#45;&gt;0x00124b0025791f63 -->
<g id="edge2" class="edge">
<title>0x00158d00042446ec&#45;&gt;0x00124b0025791f63</title>
<path fill="none" stroke="#994444" d="M796.47,-896.01C755.66,-813.51 673.78,-647.97 634.01,-567.59"/>
<polygon fill="#994444" stroke="#994444" points="636.95,-566.63 629.38,-559.22 630.67,-569.73 636.95,-566.63"/>
<text text-anchor="middle" x="708.49" y="-735" font-family="Times,serif" font-size="14.00">90</text>
</g>
<!-- 0x00158d0004244bda -->
<g id="node4" class="node">
<title>0x00158d0004244bda</title>
<path fill="#fff8ce" stroke="black" stroke-dasharray="5,2" d="M88.63,-837.57C88.63,-837.57 534.38,-837.57 534.38,-837.57 540.38,-837.57 546.38,-843.57 546.38,-849.57 546.38,-849.57 546.38,-923.57 546.38,-923.57 546.38,-929.57 540.38,-935.57 534.38,-935.57 534.38,-935.57 88.63,-935.57 88.63,-935.57 82.63,-935.57 76.63,-929.57 76.63,-923.57 76.63,-923.57 76.63,-849.57 76.63,-849.57 76.63,-843.57 82.63,-837.57 88.63,-837.57"/>
<text text-anchor="middle" x="311.51" y="-918.27" font-family="Times,serif" font-size="14.00" fill="#000000">0x00158d0004244bda</text>
<polyline fill="none" stroke="black" stroke-dasharray="5,2" points="76.63,-911.07 546.38,-911.07"/>
<text text-anchor="middle" x="311.51" y="-893.77" font-family="Times,serif" font-size="14.00" fill="#000000">0x00158d0004244bda (0x3d71)</text>
<polyline fill="none" stroke="black" stroke-dasharray="5,2" points="76.63,-886.57 546.38,-886.57"/>
<text text-anchor="middle" x="311.51" y="-869.27" font-family="Times,serif" font-size="14.00" fill="#000000">Xiaomi Aqara double key wireless wall switch (2018 model) (WXKG02LM_rev2)</text>
<polyline fill="none" stroke="black" stroke-dasharray="5,2" points="76.63,-862.07 546.38,-862.07"/>
<text text-anchor="middle" x="311.51" y="-844.77" font-family="Times,serif" font-size="14.00" fill="#000000">8 months, 3 weeks ago</text>
</g>
<!-- 0x00158d0004244bda&#45;&gt;0x00124b0025791f63 -->
<g id="edge3" class="edge">
<title>0x00158d0004244bda&#45;&gt;0x00124b0025791f63</title>
<path fill="none" stroke="#994444" d="M351.63,-837.74C410,-766.69 517.54,-635.81 574.18,-566.87"/>
<polygon fill="#994444" stroke="#994444" points="577.52,-569.33 581.16,-559.38 572.11,-564.88 577.52,-569.33"/>
<text text-anchor="middle" x="452.78" y="-705.51" font-family="Times,serif" font-size="14.00">170</text>
</g>
<!-- 0x00158d0004035e3e -->
<g id="node5" class="node">
<title>0x00158d0004035e3e</title>
<path fill="#fff8ce" stroke="black" stroke-dasharray="5,2" d="M12,-442.83C12,-442.83 268,-442.83 268,-442.83 274,-442.83 280,-448.83 280,-454.83 280,-454.83 280,-528.83 280,-528.83 280,-534.83 274,-540.83 268,-540.83 268,-540.83 12,-540.83 12,-540.83 6,-540.83 0,-534.83 0,-528.83 0,-528.83 0,-454.83 0,-454.83 0,-448.83 6,-442.83 12,-442.83"/>
<text text-anchor="middle" x="140" y="-523.53" font-family="Times,serif" font-size="14.00" fill="#000000">0x00158d0004035e3e</text>
<polyline fill="none" stroke="black" stroke-dasharray="5,2" points="0,-516.33 280,-516.33"/>
<text text-anchor="middle" x="140" y="-499.03" font-family="Times,serif" font-size="14.00" fill="#000000">0x00158d0004035e3e (0x985b)</text>
<polyline fill="none" stroke="black" stroke-dasharray="5,2" points="0,-491.83 280,-491.83"/>
<text text-anchor="middle" x="140" y="-474.53" font-family="Times,serif" font-size="14.00" fill="#000000">Xiaomi Aqara water leak sensor (SJCGQ11LM)</text>
<polyline fill="none" stroke="black" stroke-dasharray="5,2" points="0,-467.33 280,-467.33"/>
<text text-anchor="middle" x="140" y="-450.03" font-family="Times,serif" font-size="14.00" fill="#000000">8 months, 3 weeks ago</text>
</g>
<!-- 0x00158d0004035e3e&#45;&gt;0x00124b0025791f63 -->
<g id="edge4" class="edge">
<title>0x00158d0004035e3e&#45;&gt;0x00124b0025791f63</title>
<path fill="none" stroke="#994444" d="M279.81,-500.69C352.44,-505.29 439.7,-510.82 506.46,-515.04"/>
<polygon fill="#994444" stroke="#994444" points="506.22,-518.6 516.42,-515.74 506.66,-511.61 506.22,-518.6"/>
<text text-anchor="middle" x="383.01" y="-511.07" font-family="Times,serif" font-size="14.00">170</text>
</g>
<!-- 0x00158d00040356af -->
<g id="node6" class="node">
<title>0x00158d00040356af</title>
<path fill="#fff8ce" stroke="black" stroke-dasharray="5,2" d="M157.22,-131.09C157.22,-131.09 413.22,-131.09 413.22,-131.09 419.22,-131.09 425.22,-137.09 425.22,-143.09 425.22,-143.09 425.22,-217.09 425.22,-217.09 425.22,-223.09 419.22,-229.09 413.22,-229.09 413.22,-229.09 157.22,-229.09 157.22,-229.09 151.22,-229.09 145.22,-223.09 145.22,-217.09 145.22,-217.09 145.22,-143.09 145.22,-143.09 145.22,-137.09 151.22,-131.09 157.22,-131.09"/>
<text text-anchor="middle" x="285.22" y="-211.79" font-family="Times,serif" font-size="14.00" fill="#000000">0x00158d00040356af</text>
<polyline fill="none" stroke="black" stroke-dasharray="5,2" points="145.22,-204.59 425.22,-204.59"/>
<text text-anchor="middle" x="285.22" y="-187.29" font-family="Times,serif" font-size="14.00" fill="#000000">0x00158d00040356af (0x99f0)</text>
<polyline fill="none" stroke="black" stroke-dasharray="5,2" points="145.22,-180.09 425.22,-180.09"/>
<text text-anchor="middle" x="285.22" y="-162.79" font-family="Times,serif" font-size="14.00" fill="#000000">Xiaomi Aqara water leak sensor (SJCGQ11LM)</text>
<polyline fill="none" stroke="black" stroke-dasharray="5,2" points="145.22,-155.59 425.22,-155.59"/>
<text text-anchor="middle" x="285.22" y="-138.29" font-family="Times,serif" font-size="14.00" fill="#000000">10 minutes, 58 seconds ago</text>
</g>
<!-- 0x00158d00040356af&#45;&gt;0x00124b0025791f63 -->
<g id="edge5" class="edge">
<title>0x00158d00040356af&#45;&gt;0x00124b0025791f63</title>
<path fill="none" stroke="#994444" d="M331.94,-229.03C395.44,-295.55 508.06,-413.53 569.12,-477.49"/>
<polygon fill="#994444" stroke="#994444" points="566.23,-479.57 575.66,-484.39 571.29,-474.74 566.23,-479.57"/>
<text text-anchor="middle" x="440.4" y="-356.46" font-family="Times,serif" font-size="14.00">111</text>
</g>
<!-- 0x00158d000405811b -->
<g id="node7" class="node">
<title>0x00158d000405811b</title>
<path fill="#fff8ce" stroke="black" stroke-dasharray="5,2" d="M475.37,-0.5C475.37,-0.5 731.37,-0.5 731.37,-0.5 737.37,-0.5 743.37,-6.5 743.37,-12.5 743.37,-12.5 743.37,-86.5 743.37,-86.5 743.37,-92.5 737.37,-98.5 731.37,-98.5 731.37,-98.5 475.37,-98.5 475.37,-98.5 469.37,-98.5 463.37,-92.5 463.37,-86.5 463.37,-86.5 463.37,-12.5 463.37,-12.5 463.37,-6.5 469.37,-0.5 475.37,-0.5"/>
<text text-anchor="middle" x="603.37" y="-81.2" font-family="Times,serif" font-size="14.00" fill="#000000">0x00158d000405811b</text>
<polyline fill="none" stroke="black" stroke-dasharray="5,2" points="463.37,-74 743.37,-74"/>
<text text-anchor="middle" x="603.37" y="-56.7" font-family="Times,serif" font-size="14.00" fill="#000000">0x00158d000405811b (0xc954)</text>
<polyline fill="none" stroke="black" stroke-dasharray="5,2" points="463.37,-49.5 743.37,-49.5"/>
<text text-anchor="middle" x="603.37" y="-32.2" font-family="Times,serif" font-size="14.00" fill="#000000">Xiaomi Aqara water leak sensor (SJCGQ11LM)</text>
<polyline fill="none" stroke="black" stroke-dasharray="5,2" points="463.37,-25 743.37,-25"/>
<text text-anchor="middle" x="603.37" y="-7.7" font-family="Times,serif" font-size="14.00" fill="#000000">8 months, 3 weeks ago</text>
</g>
<!-- 0x00158d000405811b&#45;&gt;0x00124b0025791f63 -->
<g id="edge6" class="edge">
<title>0x00158d000405811b&#45;&gt;0x00124b0025791f63</title>
<path fill="none" stroke="#994444" d="M604.19,-98.25C605.72,-189.32 609,-384.16 610.51,-474.23"/>
<polygon fill="#994444" stroke="#994444" points="607.03,-474.26 610.69,-484.2 614.03,-474.14 607.03,-474.26"/>
<text text-anchor="middle" x="597.23" y="-289.44" font-family="Times,serif" font-size="14.00">170</text>
</g>
<!-- 0x00158d0003a010a5 -->
<g id="node8" class="node">
<title>0x00158d0003a010a5</title>
<path fill="#4ea3e0" stroke="black" d="M887.93,-657.69C887.93,-657.69 1132.68,-657.69 1132.68,-657.69 1138.68,-657.69 1144.68,-663.69 1144.68,-669.69 1144.68,-669.69 1144.68,-743.69 1144.68,-743.69 1144.68,-749.69 1138.68,-755.69 1132.68,-755.69 1132.68,-755.69 887.93,-755.69 887.93,-755.69 881.93,-755.69 875.93,-749.69 875.93,-743.69 875.93,-743.69 875.93,-669.69 875.93,-669.69 875.93,-663.69 881.93,-657.69 887.93,-657.69"/>
<text text-anchor="middle" x="1010.31" y="-738.39" font-family="Times,serif" font-size="14.00" fill="#ffffff">0x00158d0003a010a5</text>
<polyline fill="none" stroke="black" points="875.93,-731.19 1144.68,-731.19"/>
<text text-anchor="middle" x="1010.31" y="-713.89" font-family="Times,serif" font-size="14.00" fill="#ffffff">0x00158d0003a010a5 (0xc463)failed: lqi</text>
<polyline fill="none" stroke="black" points="875.93,-706.69 1144.68,-706.69"/>
<text text-anchor="middle" x="1010.31" y="-689.39" font-family="Times,serif" font-size="14.00" fill="#ffffff">Xiaomi Mi power plug ZigBee (ZNCZ02LM)</text>
<polyline fill="none" stroke="black" points="875.93,-682.19 1144.68,-682.19"/>
<text text-anchor="middle" x="1010.31" y="-664.89" font-family="Times,serif" font-size="14.00" fill="#ffffff">1 year, 3 months ago</text>
</g>
<!-- 0x00158d000391f252 -->
<g id="node9" class="node">
<title>0x00158d000391f252</title>
<path fill="#4ea3e0" stroke="black" d="M960.93,-292.69C960.93,-292.69 1205.68,-292.69 1205.68,-292.69 1211.68,-292.69 1217.68,-298.69 1217.68,-304.69 1217.68,-304.69 1217.68,-378.69 1217.68,-378.69 1217.68,-384.69 1211.68,-390.69 1205.68,-390.69 1205.68,-390.69 960.93,-390.69 960.93,-390.69 954.93,-390.69 948.93,-384.69 948.93,-378.69 948.93,-378.69 948.93,-304.69 948.93,-304.69 948.93,-298.69 954.93,-292.69 960.93,-292.69"/>
<text text-anchor="middle" x="1083.31" y="-373.39" font-family="Times,serif" font-size="14.00" fill="#ffffff">0x00158d000391f252</text>
<polyline fill="none" stroke="black" points="948.93,-366.19 1217.68,-366.19"/>
<text text-anchor="middle" x="1083.31" y="-348.89" font-family="Times,serif" font-size="14.00" fill="#ffffff">0x00158d000391f252 (0x9ec5)failed: lqi</text>
<polyline fill="none" stroke="black" points="948.93,-341.69 1217.68,-341.69"/>
<text text-anchor="middle" x="1083.31" y="-324.39" font-family="Times,serif" font-size="14.00" fill="#ffffff">Xiaomi Mi power plug ZigBee (ZNCZ02LM)</text>
<polyline fill="none" stroke="black" points="948.93,-317.19 1217.68,-317.19"/>
<text text-anchor="middle" x="1083.31" y="-299.89" font-family="Times,serif" font-size="14.00" fill="#ffffff">1 year, 4 months ago</text>
</g>
<!-- 0x50325ffffe6ca5da -->
<g id="node10" class="node">
<title>0x50325ffffe6ca5da</title>
<path fill="#fff8ce" stroke="black" stroke-dasharray="5,2" d="M801.64,-109.79C801.64,-109.79 1025.39,-109.79 1025.39,-109.79 1031.39,-109.79 1037.39,-115.79 1037.39,-121.79 1037.39,-121.79 1037.39,-195.79 1037.39,-195.79 1037.39,-201.79 1031.39,-207.79 1025.39,-207.79 1025.39,-207.79 801.64,-207.79 801.64,-207.79 795.64,-207.79 789.64,-201.79 789.64,-195.79 789.64,-195.79 789.64,-121.79 789.64,-121.79 789.64,-115.79 795.64,-109.79 801.64,-109.79"/>
<text text-anchor="middle" x="913.52" y="-190.49" font-family="Times,serif" font-size="14.00" fill="#000000">0x50325ffffe6ca5da</text>
<polyline fill="none" stroke="black" stroke-dasharray="5,2" points="789.64,-183.29 1037.39,-183.29"/>
<text text-anchor="middle" x="913.52" y="-165.99" font-family="Times,serif" font-size="14.00" fill="#000000">0x50325ffffe6ca5da (0xab34)</text>
<polyline fill="none" stroke="black" stroke-dasharray="5,2" points="789.64,-158.79 1037.39,-158.79"/>
<text text-anchor="middle" x="913.52" y="-141.49" font-family="Times,serif" font-size="14.00" fill="#000000">IKEA TRADFRI ON/OFF switch (E1743)</text>
<polyline fill="none" stroke="black" stroke-dasharray="5,2" points="789.64,-134.29 1037.39,-134.29"/>
<text text-anchor="middle" x="913.52" y="-116.99" font-family="Times,serif" font-size="14.00" fill="#000000">1 year, 3 months ago</text>
</g>
<!-- 0x50325ffffe6ca5da&#45;&gt;0x00124b0025791f63 -->
<g id="edge7" class="edge">
<title>0x50325ffffe6ca5da&#45;&gt;0x00124b0025791f63</title>
<path fill="none" stroke="#994444" d="M872.76,-207.73C813.89,-278.42 705.9,-408.1 648.87,-476.58"/>
<polygon fill="#994444" stroke="#994444" points="645.55,-474.1 641.84,-484.02 650.93,-478.58 645.55,-474.1"/>
<text text-anchor="middle" x="750.69" y="-345.36" font-family="Times,serif" font-size="14.00">170</text>
</g>
</g>
</svg>
