<?xml version="1.0" encoding="UTF-8" standalone="no"?>
<!DOCTYPE svg PUBLIC "-//W3C//DTD SVG 1.1//EN"
 "http://www.w3.org/Graphics/SVG/1.1/DTD/svg11.dtd">
<!-- Generated by graphviz version 8.1.0 (20230707.0739)
 -->
<!-- Title: G Pages: 1 -->
<svg width="1551pt" height="1283pt"
 viewBox="0.00 0.00 1550.70 1283.10" xmlns="http://www.w3.org/2000/svg" xmlns:xlink="http://www.w3.org/1999/xlink">
<g id="graph0" class="graph" transform="scale(1 1) rotate(0) translate(4 1279.1)">
<title>G</title>
<polygon fill="white" stroke="none" points="-4,4 -4,-1279.1 1546.7,-1279.1 1546.7,4 -4,4"/>
<!-- 0x00124b0025791f63 -->
<g id="node1" class="node">
<title>0x00124b0025791f63</title>
<polygon fill="#e04e5d" stroke="black" stroke-width="2" points="642.08,-514.85 642.08,-588.35 830.58,-588.35 830.58,-514.85 642.08,-514.85"/>
<text text-anchor="middle" x="736.33" y="-571.05" font-family="Times,serif" font-size="14.00" fill="#ffffff">Coordinator</text>
<polyline fill="none" stroke="black" stroke-width="2" points="642.08,-563.85 830.58,-563.85"/>
<text text-anchor="middle" x="736.33" y="-546.55" font-family="Times,serif" font-size="14.00" fill="#ffffff">0x00124b0025791f63 (0x0000)</text>
<polyline fill="none" stroke="black" stroke-width="2" points="642.08,-539.35 830.58,-539.35"/>
<text text-anchor="middle" x="736.33" y="-522.05" font-family="Times,serif" font-size="14.00" fill="#ffffff">0 seconds ago</text>
</g>
<!-- 0x00158d0003a010a5 -->
<g id="node2" class="node">
<title>0x00158d0003a010a5</title>
<path fill="#4ea3e0" stroke="black" d="M1140.44,-502.6C1140.44,-502.6 1385.19,-502.6 1385.19,-502.6 1391.19,-502.6 1397.19,-508.6 1397.19,-514.6 1397.19,-514.6 1397.19,-588.6 1397.19,-588.6 1397.19,-594.6 1391.19,-600.6 1385.19,-600.6 1385.19,-600.6 1140.44,-600.6 1140.44,-600.6 1134.44,-600.6 1128.44,-594.6 1128.44,-588.6 1128.44,-588.6 1128.44,-514.6 1128.44,-514.6 1128.44,-508.6 1134.44,-502.6 1140.44,-502.6"/>
<text text-anchor="middle" x="1262.81" y="-583.3" font-family="Times,serif" font-size="14.00" fill="#ffffff">0x00158d0003a010a5</text>
<polyline fill="none" stroke="black" points="1128.44,-576.1 1397.19,-576.1"/>
<text text-anchor="middle" x="1262.81" y="-558.8" font-family="Times,serif" font-size="14.00" fill="#ffffff">0x00158d0003a010a5 (0x0414)</text>
<polyline fill="none" stroke="black" points="1128.44,-551.6 1397.19,-551.6"/>
<text text-anchor="middle" x="1262.81" y="-534.3" font-family="Times,serif" font-size="14.00" fill="#ffffff">Xiaomi Mi power plug ZigBee (ZNCZ02LM)</text>
<polyline fill="none" stroke="black" points="1128.44,-527.1 1397.19,-527.1"/>
<text text-anchor="middle" x="1262.81" y="-509.8" font-family="Times,serif" font-size="14.00" fill="#ffffff">26 seconds ago</text>
</g>
<!-- 0x00124b0025791f63&#45;&gt;0x00158d0003a010a5 -->
<g id="edge1" class="edge">
<title>0x00124b0025791f63&#45;&gt;0x00158d0003a010a5</title>
<path fill="none" stroke="#994444" stroke-width="0.5" d="M830.45,-556.91C910.5,-558.51 1026.73,-558.77 1118.52,-557.69"/>
<polygon fill="#994444" stroke="#994444" stroke-width="0.5" points="1118.5,-561.19 1128.45,-557.57 1118.41,-554.19 1118.5,-561.19"/>
<text text-anchor="middle" x="967.74" y="-560.5" font-family="Times,serif" font-size="14.00">58</text>
</g>
<!-- 0x00158d0003a010a5&#45;&gt;0x00124b0025791f63 -->
<g id="edge8" class="edge">
<title>0x00158d0003a010a5&#45;&gt;0x00124b0025791f63</title>
<path fill="none" stroke="#994444" stroke-width="0.5" d="M1128.6,-545.63C1039.01,-544.45 922.94,-544.6 840.36,-546.09"/>
<polygon fill="#994444" stroke="#994444" stroke-width="0.5" points="840.39,-542.59 830.46,-546.28 840.52,-549.59 840.39,-542.59"/>
<text text-anchor="middle" x="977.73" y="-532.56" font-family="Times,serif" font-size="14.00">71</text>
</g>
<!-- 0x00158d00067cb0c9 -->
<g id="node3" class="node">
<title>0x00158d00067cb0c9</title>
<path fill="#fff8ce" stroke="black" stroke-dasharray="5,2" d="M894.84,-882.49C894.84,-882.49 1306.84,-882.49 1306.84,-882.49 1312.84,-882.49 1318.84,-888.49 1318.84,-894.49 1318.84,-894.49 1318.84,-968.49 1318.84,-968.49 1318.84,-974.49 1312.84,-980.49 1306.84,-980.49 1306.84,-980.49 894.84,-980.49 894.84,-980.49 888.84,-980.49 882.84,-974.49 882.84,-968.49 882.84,-968.49 882.84,-894.49 882.84,-894.49 882.84,-888.49 888.84,-882.49 894.84,-882.49"/>
<text text-anchor="middle" x="1100.84" y="-963.19" font-family="Times,serif" font-size="14.00" fill="#000000">0x00158d00067cb0c9</text>
<polyline fill="none" stroke="black" stroke-dasharray="5,2" points="882.84,-955.99 1318.84,-955.99"/>
<text text-anchor="middle" x="1100.84" y="-938.69" font-family="Times,serif" font-size="14.00" fill="#000000">0x00158d00067cb0c9 (0x4308)</text>
<polyline fill="none" stroke="black" stroke-dasharray="5,2" points="882.84,-931.49 1318.84,-931.49"/>
<text text-anchor="middle" x="1100.84" y="-914.19" font-family="Times,serif" font-size="14.00" fill="#000000">Xiaomi Aqara temperature, humidity and pressure sensor (WSDCGQ11LM)</text>
<polyline fill="none" stroke="black" stroke-dasharray="5,2" points="882.84,-906.99 1318.84,-906.99"/>
<text text-anchor="middle" x="1100.84" y="-889.69" font-family="Times,serif" font-size="14.00" fill="#000000">51 seconds ago</text>
</g>
<!-- 0x00158d00067cb0c9&#45;&gt;0x00124b0025791f63 -->
<g id="edge2" class="edge">
<title>0x00158d00067cb0c9&#45;&gt;0x00124b0025791f63</title>
<path fill="none" stroke="#994444" d="M1053.93,-882.6C982.41,-808.06 847.19,-667.14 778.57,-595.62"/>
<polygon fill="#994444" stroke="#994444" points="781.79,-593.87 772.34,-589.08 776.73,-598.72 781.79,-593.87"/>
<text text-anchor="middle" x="909.5" y="-742.31" font-family="Times,serif" font-size="14.00">98</text>
</g>
<!-- 0x00158d00042446ec -->
<g id="node4" class="node">
<title>0x00158d00042446ec</title>
<path fill="#fff8ce" stroke="black" stroke-dasharray="5,2" d="M392.3,-1014.95C392.3,-1014.95 838.05,-1014.95 838.05,-1014.95 844.05,-1014.95 850.05,-1020.95 850.05,-1026.95 850.05,-1026.95 850.05,-1100.95 850.05,-1100.95 850.05,-1106.95 844.05,-1112.95 838.05,-1112.95 838.05,-1112.95 392.3,-1112.95 392.3,-1112.95 386.3,-1112.95 380.3,-1106.95 380.3,-1100.95 380.3,-1100.95 380.3,-1026.95 380.3,-1026.95 380.3,-1020.95 386.3,-1014.95 392.3,-1014.95"/>
<text text-anchor="middle" x="615.17" y="-1095.65" font-family="Times,serif" font-size="14.00" fill="#000000">0x00158d00042446ec</text>
<polyline fill="none" stroke="black" stroke-dasharray="5,2" points="380.3,-1088.45 850.05,-1088.45"/>
<text text-anchor="middle" x="615.17" y="-1071.15" font-family="Times,serif" font-size="14.00" fill="#000000">0x00158d00042446ec (0xc892)</text>
<polyline fill="none" stroke="black" stroke-dasharray="5,2" points="380.3,-1063.95 850.05,-1063.95"/>
<text text-anchor="middle" x="615.17" y="-1046.65" font-family="Times,serif" font-size="14.00" fill="#000000">Xiaomi Aqara double key wireless wall switch (2018 model) (WXKG02LM_rev2)</text>
<polyline fill="none" stroke="black" stroke-dasharray="5,2" points="380.3,-1039.45 850.05,-1039.45"/>
<text text-anchor="middle" x="615.17" y="-1022.15" font-family="Times,serif" font-size="14.00" fill="#000000">9 minutes, 45 seconds ago</text>
</g>
<!-- 0x00158d00042446ec&#45;&gt;0x00124b0025791f63 -->
<g id="edge3" class="edge">
<title>0x00158d00042446ec&#45;&gt;0x00124b0025791f63</title>
<path fill="none" stroke="#994444" d="M626.68,-1015.29C649.91,-917.04 702.16,-696.08 725.13,-598.94"/>
<polygon fill="#994444" stroke="#994444" points="728.76,-599.81 727.66,-589.27 721.95,-598.2 728.76,-599.81"/>
<text text-anchor="middle" x="665.78" y="-810.31" font-family="Times,serif" font-size="14.00">104</text>
</g>
<!-- 0x00158d0004244bda -->
<g id="node5" class="node">
<title>0x00158d0004244bda</title>
<path fill="#fff8ce" stroke="black" stroke-dasharray="5,2" d="M12,-663C12,-663 457.75,-663 457.75,-663 463.75,-663 469.75,-669 469.75,-675 469.75,-675 469.75,-749 469.75,-749 469.75,-755 463.75,-761 457.75,-761 457.75,-761 12,-761 12,-761 6,-761 0,-755 0,-749 0,-749 0,-675 0,-675 0,-669 6,-663 12,-663"/>
<text text-anchor="middle" x="234.88" y="-743.7" font-family="Times,serif" font-size="14.00" fill="#000000">0x00158d0004244bda</text>
<polyline fill="none" stroke="black" stroke-dasharray="5,2" points="0,-736.5 469.75,-736.5"/>
<text text-anchor="middle" x="234.88" y="-719.2" font-family="Times,serif" font-size="14.00" fill="#000000">0x00158d0004244bda (0x3d71)</text>
<polyline fill="none" stroke="black" stroke-dasharray="5,2" points="0,-712 469.75,-712"/>
<text text-anchor="middle" x="234.88" y="-694.7" font-family="Times,serif" font-size="14.00" fill="#000000">Xiaomi Aqara double key wireless wall switch (2018 model) (WXKG02LM_rev2)</text>
<polyline fill="none" stroke="black" stroke-dasharray="5,2" points="0,-687.5 469.75,-687.5"/>
<text text-anchor="middle" x="234.88" y="-670.2" font-family="Times,serif" font-size="14.00" fill="#000000">23 seconds ago</text>
</g>
<!-- 0x00158d0004244bda&#45;&gt;0x00124b0025791f63 -->
<g id="edge4" class="edge">
<title>0x00158d0004244bda&#45;&gt;0x00124b0025791f63</title>
<path fill="none" stroke="#994444" d="M388.05,-663.01C467.11,-637.71 561.51,-607.52 632.07,-584.95"/>
<polygon fill="#994444" stroke="#994444" points="632.84,-588.05 641.3,-581.67 630.71,-581.39 632.84,-588.05"/>
<text text-anchor="middle" x="503.31" y="-627.18" font-family="Times,serif" font-size="14.00">35</text>
</g>
<!-- 0x00158d0004035e3e -->
<g id="node6" class="node">
<title>0x00158d0004035e3e</title>
<path fill="#fff8ce" stroke="black" stroke-dasharray="5,2" d="M156.54,-232.28C156.54,-232.28 412.54,-232.28 412.54,-232.28 418.54,-232.28 424.54,-238.28 424.54,-244.28 424.54,-244.28 424.54,-318.28 424.54,-318.28 424.54,-324.28 418.54,-330.28 412.54,-330.28 412.54,-330.28 156.54,-330.28 156.54,-330.28 150.54,-330.28 144.54,-324.28 144.54,-318.28 144.54,-318.28 144.54,-244.28 144.54,-244.28 144.54,-238.28 150.54,-232.28 156.54,-232.28"/>
<text text-anchor="middle" x="284.54" y="-312.98" font-family="Times,serif" font-size="14.00" fill="#000000">0x00158d0004035e3e</text>
<polyline fill="none" stroke="black" stroke-dasharray="5,2" points="144.54,-305.78 424.54,-305.78"/>
<text text-anchor="middle" x="284.54" y="-288.48" font-family="Times,serif" font-size="14.00" fill="#000000">0x00158d0004035e3e (0x985b)</text>
<polyline fill="none" stroke="black" stroke-dasharray="5,2" points="144.54,-281.28 424.54,-281.28"/>
<text text-anchor="middle" x="284.54" y="-263.98" font-family="Times,serif" font-size="14.00" fill="#000000">Xiaomi Aqara water leak sensor (SJCGQ11LM)</text>
<polyline fill="none" stroke="black" stroke-dasharray="5,2" points="144.54,-256.78 424.54,-256.78"/>
<text text-anchor="middle" x="284.54" y="-239.48" font-family="Times,serif" font-size="14.00" fill="#000000">26 minutes, 28 seconds ago</text>
</g>
<!-- 0x00158d0004035e3e&#45;&gt;0x00124b0025791f63 -->
<g id="edge5" class="edge">
<title>0x00158d0004035e3e&#45;&gt;0x00124b0025791f63</title>
<path fill="none" stroke="#994444" d="M366.35,-330.23C451.93,-381.43 584.85,-460.96 665.9,-509.46"/>
<polygon fill="#994444" stroke="#994444" points="663.66,-512.79 674.04,-514.92 667.25,-506.79 663.66,-512.79"/>
<text text-anchor="middle" x="509.38" y="-423.04" font-family="Times,serif" font-size="14.00">52</text>
</g>
<!-- 0x00158d00040356af -->
<g id="node7" class="node">
<title>0x00158d00040356af</title>
<path fill="#fff8ce" stroke="black" stroke-dasharray="5,2" d="M421.37,-10.42C421.37,-10.42 677.37,-10.42 677.37,-10.42 683.37,-10.42 689.37,-16.42 689.37,-22.42 689.37,-22.42 689.37,-96.42 689.37,-96.42 689.37,-102.42 683.37,-108.42 677.37,-108.42 677.37,-108.42 421.37,-108.42 421.37,-108.42 415.37,-108.42 409.37,-102.42 409.37,-96.42 409.37,-96.42 409.37,-22.42 409.37,-22.42 409.37,-16.42 415.37,-10.42 421.37,-10.42"/>
<text text-anchor="middle" x="549.37" y="-91.12" font-family="Times,serif" font-size="14.00" fill="#000000">0x00158d00040356af</text>
<polyline fill="none" stroke="black" stroke-dasharray="5,2" points="409.37,-83.92 689.37,-83.92"/>
<text text-anchor="middle" x="549.37" y="-66.62" font-family="Times,serif" font-size="14.00" fill="#000000">0x00158d00040356af (0x95a7)</text>
<polyline fill="none" stroke="black" stroke-dasharray="5,2" points="409.37,-59.42 689.37,-59.42"/>
<text text-anchor="middle" x="549.37" y="-42.12" font-family="Times,serif" font-size="14.00" fill="#000000">Xiaomi Aqara water leak sensor (SJCGQ11LM)</text>
<polyline fill="none" stroke="black" stroke-dasharray="5,2" points="409.37,-34.92 689.37,-34.92"/>
<text text-anchor="middle" x="549.37" y="-17.62" font-family="Times,serif" font-size="14.00" fill="#000000">37 minutes, 14 seconds ago</text>
</g>
<!-- 0x00158d00040356af&#45;&gt;0x00124b0025791f63 -->
<g id="edge6" class="edge">
<title>0x00158d00040356af&#45;&gt;0x00124b0025791f63</title>
<path fill="none" stroke="#994444" d="M567.98,-108.41C604.09,-203.47 683.2,-411.74 718.6,-504.92"/>
<polygon fill="#994444" stroke="#994444" points="715.67,-506.06 722.49,-514.17 722.21,-503.58 715.67,-506.06"/>
<text text-anchor="middle" x="636.54" y="-309.87" font-family="Times,serif" font-size="14.00">81</text>
</g>
<!-- 0x00158d000405811b -->
<g id="node8" class="node">
<title>0x00158d000405811b</title>
<path fill="#fff8ce" stroke="black" stroke-dasharray="5,2" d="M766.71,-0.5C766.71,-0.5 1022.71,-0.5 1022.71,-0.5 1028.71,-0.5 1034.71,-6.5 1034.71,-12.5 1034.71,-12.5 1034.71,-86.5 1034.71,-86.5 1034.71,-92.5 1028.71,-98.5 1022.71,-98.5 1022.71,-98.5 766.71,-98.5 766.71,-98.5 760.71,-98.5 754.71,-92.5 754.71,-86.5 754.71,-86.5 754.71,-12.5 754.71,-12.5 754.71,-6.5 760.71,-0.5 766.71,-0.5"/>
<text text-anchor="middle" x="894.71" y="-81.2" font-family="Times,serif" font-size="14.00" fill="#000000">0x00158d000405811b</text>
<polyline fill="none" stroke="black" stroke-dasharray="5,2" points="754.71,-74 1034.71,-74"/>
<text text-anchor="middle" x="894.71" y="-56.7" font-family="Times,serif" font-size="14.00" fill="#000000">0x00158d000405811b (0x6ee7)</text>
<polyline fill="none" stroke="black" stroke-dasharray="5,2" points="754.71,-49.5 1034.71,-49.5"/>
<text text-anchor="middle" x="894.71" y="-32.2" font-family="Times,serif" font-size="14.00" fill="#000000">Xiaomi Aqara water leak sensor (SJCGQ11LM)</text>
<polyline fill="none" stroke="black" stroke-dasharray="5,2" points="754.71,-25 1034.71,-25"/>
<text text-anchor="middle" x="894.71" y="-7.7" font-family="Times,serif" font-size="14.00" fill="#000000">46 minutes, 35 seconds ago</text>
</g>
<!-- 0x00158d000405811b&#45;&gt;0x00124b0025791f63 -->
<g id="edge7" class="edge">
<title>0x00158d000405811b&#45;&gt;0x00124b0025791f63</title>
<path fill="none" stroke="#994444" d="M879.38,-98.1C848.92,-194.67 781.13,-409.57 751.12,-504.71"/>
<polygon fill="#994444" stroke="#994444" points="747.49,-503.58 747.82,-514.17 754.17,-505.68 747.49,-503.58"/>
<text text-anchor="middle" x="808.5" y="-304.61" font-family="Times,serif" font-size="14.00">31</text>
</g>
<!-- 0x00158d000391f252 -->
<g id="node9" class="node">
<title>0x00158d000391f252</title>
<path fill="#4ea3e0" stroke="black" d="M1285.95,-1176.6C1285.95,-1176.6 1530.7,-1176.6 1530.7,-1176.6 1536.7,-1176.6 1542.7,-1182.6 1542.7,-1188.6 1542.7,-1188.6 1542.7,-1262.6 1542.7,-1262.6 1542.7,-1268.6 1536.7,-1274.6 1530.7,-1274.6 1530.7,-1274.6 1285.95,-1274.6 1285.95,-1274.6 1279.95,-1274.6 1273.95,-1268.6 1273.95,-1262.6 1273.95,-1262.6 1273.95,-1188.6 1273.95,-1188.6 1273.95,-1182.6 1279.95,-1176.6 1285.95,-1176.6"/>
<text text-anchor="middle" x="1408.33" y="-1257.3" font-family="Times,serif" font-size="14.00" fill="#ffffff">0x00158d000391f252</text>
<polyline fill="none" stroke="black" points="1273.95,-1250.1 1542.7,-1250.1"/>
<text text-anchor="middle" x="1408.33" y="-1232.8" font-family="Times,serif" font-size="14.00" fill="#ffffff">0x00158d000391f252 (0x9ec5)failed: lqi</text>
<polyline fill="none" stroke="black" points="1273.95,-1225.6 1542.7,-1225.6"/>
<text text-anchor="middle" x="1408.33" y="-1208.3" font-family="Times,serif" font-size="14.00" fill="#ffffff">Xiaomi Mi power plug ZigBee (ZNCZ02LM)</text>
<polyline fill="none" stroke="black" points="1273.95,-1201.1 1542.7,-1201.1"/>
<text text-anchor="middle" x="1408.33" y="-1183.8" font-family="Times,serif" font-size="14.00" fill="#ffffff">1 year, 10 months ago</text>
</g>
<!-- 0x50325ffffe6ca5da -->
<g id="node10" class="node">
<title>0x50325ffffe6ca5da</title>
<path fill="#fff8ce" stroke="black" stroke-dasharray="5,2" d="M1050.71,-193.58C1050.71,-193.58 1274.46,-193.58 1274.46,-193.58 1280.46,-193.58 1286.46,-199.58 1286.46,-205.58 1286.46,-205.58 1286.46,-279.58 1286.46,-279.58 1286.46,-285.58 1280.46,-291.58 1274.46,-291.58 1274.46,-291.58 1050.71,-291.58 1050.71,-291.58 1044.71,-291.58 1038.71,-285.58 1038.71,-279.58 1038.71,-279.58 1038.71,-205.58 1038.71,-205.58 1038.71,-199.58 1044.71,-193.58 1050.71,-193.58"/>
<text text-anchor="middle" x="1162.59" y="-274.28" font-family="Times,serif" font-size="14.00" fill="#000000">0x50325ffffe6ca5da</text>
<polyline fill="none" stroke="black" stroke-dasharray="5,2" points="1038.71,-267.08 1286.46,-267.08"/>
<text text-anchor="middle" x="1162.59" y="-249.78" font-family="Times,serif" font-size="14.00" fill="#000000">0x50325ffffe6ca5da (0x2de7)</text>
<polyline fill="none" stroke="black" stroke-dasharray="5,2" points="1038.71,-242.58 1286.46,-242.58"/>
<text text-anchor="middle" x="1162.59" y="-225.28" font-family="Times,serif" font-size="14.00" fill="#000000">IKEA TRADFRI ON/OFF switch (E1743)</text>
<polyline fill="none" stroke="black" stroke-dasharray="5,2" points="1038.71,-218.08 1286.46,-218.08"/>
<text text-anchor="middle" x="1162.59" y="-200.78" font-family="Times,serif" font-size="14.00" fill="#000000">3 hours, 54 minutes ago</text>
</g>
<!-- 0x50325ffffe6ca5da&#45;&gt;0x00124b0025791f63 -->
<g id="edge9" class="edge">
<title>0x50325ffffe6ca5da&#45;&gt;0x00124b0025791f63</title>
<path fill="none" stroke="#994444" d="M1095.04,-291.55C1012.54,-351.36 874.28,-451.59 795.68,-508.57"/>
<polygon fill="#994444" stroke="#994444" points="793.91,-506.25 787.87,-514.96 798.02,-511.92 793.91,-506.25"/>
<text text-anchor="middle" x="938.61" y="-403.26" font-family="Times,serif" font-size="14.00">82</text>
</g>
</g>
</svg>
